<?xml version="1.0" encoding="utf-8" standalone="no"?>
<!DOCTYPE svg PUBLIC "-//W3C//DTD SVG 1.1//EN"
  "http://www.w3.org/Graphics/SVG/1.1/DTD/svg11.dtd">
<!-- Created with matplotlib (https://matplotlib.org/) -->
<svg height="120pt" version="1.1" viewBox="0 0 480 120" width="480pt" xmlns="http://www.w3.org/2000/svg" xmlns:xlink="http://www.w3.org/1999/xlink">
 <defs>
  <style type="text/css">
*{stroke-linecap:butt;stroke-linejoin:round;}
  </style>
 </defs>
 <g id="figure_1">
  <g id="patch_1">
   <path d="M 0 120 
L 480 120 
L 480 0 
L 0 0 
z
" style="fill:#ffffff;"/>
  </g>
  <g id="axes_1">
   <g id="patch_2">
    <path d="M 64.8 105 
L 427.2 105 
L 427.2 14.4 
L 64.8 14.4 
z
" style="fill:#ffffff;"/>
   </g>
   <g id="QuadMesh_1">
    <path clip-path="url(#p457d0444fb)" d="M 64.8 14.4 
L 82.92 14.4 
L 82.92 32.52 
L 64.8 32.52 
L 64.8 14.4 
" style="fill:#a6cee4;stroke:#ffffff;stroke-width:0.5;"/>
    <path clip-path="url(#p457d0444fb)" d="M 82.92 14.4 
L 101.04 14.4 
L 101.04 32.52 
L 82.92 32.52 
L 82.92 14.4 
" style="fill:#d3e4f3;stroke:#ffffff;stroke-width:0.5;"/>
    <path clip-path="url(#p457d0444fb)" d="M 101.04 14.4 
L 119.16 14.4 
L 119.16 32.52 
L 101.04 32.52 
L 101.04 14.4 
" style="fill:#c1d9ed;stroke:#ffffff;stroke-width:0.5;"/>
    <path clip-path="url(#p457d0444fb)" d="M 119.16 14.4 
L 137.28 14.4 
L 137.28 32.52 
L 119.16 32.52 
L 119.16 14.4 
" style="fill:#aacfe5;stroke:#ffffff;stroke-width:0.5;"/>
    <path clip-path="url(#p457d0444fb)" d="M 137.28 14.4 
L 155.4 14.4 
L 155.4 32.52 
L 137.28 32.52 
L 137.28 14.4 
" style="fill:#e1edf8;stroke:#ffffff;stroke-width:0.5;"/>
    <path clip-path="url(#p457d0444fb)" d="M 155.4 14.4 
L 173.52 14.4 
L 173.52 32.52 
L 155.4 32.52 
L 155.4 14.4 
" style="fill:#a5cde3;stroke:#ffffff;stroke-width:0.5;"/>
    <path clip-path="url(#p457d0444fb)" d="M 173.52 14.4 
L 191.64 14.4 
L 191.64 32.52 
L 173.52 32.52 
L 173.52 14.4 
" style="fill:#c7dcef;stroke:#ffffff;stroke-width:0.5;"/>
    <path clip-path="url(#p457d0444fb)" d="M 191.64 14.4 
L 209.76 14.4 
L 209.76 32.52 
L 191.64 32.52 
L 191.64 14.4 
" style="fill:#cddff1;stroke:#ffffff;stroke-width:0.5;"/>
    <path clip-path="url(#p457d0444fb)" d="M 209.76 14.4 
L 227.88 14.4 
L 227.88 32.52 
L 209.76 32.52 
L 209.76 14.4 
" style="fill:#d4e4f4;stroke:#ffffff;stroke-width:0.5;"/>
    <path clip-path="url(#p457d0444fb)" d="M 227.88 14.4 
L 246 14.4 
L 246 32.52 
L 227.88 32.52 
L 227.88 14.4 
" style="fill:#d0e2f2;stroke:#ffffff;stroke-width:0.5;"/>
    <path clip-path="url(#p457d0444fb)" d="M 246 14.4 
L 264.12 14.4 
L 264.12 32.52 
L 246 32.52 
L 246 14.4 
" style="fill:#7ab6d9;stroke:#ffffff;stroke-width:0.5;"/>
    <path clip-path="url(#p457d0444fb)" d="M 264.12 14.4 
L 282.24 14.4 
L 282.24 32.52 
L 264.12 32.52 
L 264.12 14.4 
" style="fill:#65aad4;stroke:#ffffff;stroke-width:0.5;"/>
    <path clip-path="url(#p457d0444fb)" d="M 282.24 14.4 
L 300.36 14.4 
L 300.36 32.52 
L 282.24 32.52 
L 282.24 14.4 
" style="fill:#dae8f6;stroke:#ffffff;stroke-width:0.5;"/>
    <path clip-path="url(#p457d0444fb)" d="M 300.36 14.4 
L 318.48 14.4 
L 318.48 32.52 
L 300.36 32.52 
L 300.36 14.4 
" style="fill:#69add5;stroke:#ffffff;stroke-width:0.5;"/>
    <path clip-path="url(#p457d0444fb)" d="M 318.48 14.4 
L 336.6 14.4 
L 336.6 32.52 
L 318.48 32.52 
L 318.48 14.4 
" style="fill:#57a0ce;stroke:#ffffff;stroke-width:0.5;"/>
    <path clip-path="url(#p457d0444fb)" d="M 336.6 14.4 
L 354.72 14.4 
L 354.72 32.52 
L 336.6 32.52 
L 336.6 14.4 
" style="fill:#4695c8;stroke:#ffffff;stroke-width:0.5;"/>
    <path clip-path="url(#p457d0444fb)" d="M 354.72 14.4 
L 372.84 14.4 
L 372.84 32.52 
L 354.72 32.52 
L 354.72 14.4 
" style="fill:#ccdff1;stroke:#ffffff;stroke-width:0.5;"/>
    <path clip-path="url(#p457d0444fb)" d="M 372.84 14.4 
L 390.96 14.4 
L 390.96 32.52 
L 372.84 32.52 
L 372.84 14.4 
" style="fill:none;stroke:#ffffff;stroke-width:0.5;"/>
    <path clip-path="url(#p457d0444fb)" d="M 390.96 14.4 
L 409.08 14.4 
L 409.08 32.52 
L 390.96 32.52 
L 390.96 14.4 
" style="fill:#d3e3f3;stroke:#ffffff;stroke-width:0.5;"/>
    <path clip-path="url(#p457d0444fb)" d="M 409.08 14.4 
L 427.2 14.4 
L 427.2 32.52 
L 409.08 32.52 
L 409.08 14.4 
" style="fill:none;stroke:#ffffff;stroke-width:0.5;"/>
    <path clip-path="url(#p457d0444fb)" d="M 64.8 32.52 
L 82.92 32.52 
L 82.92 50.64 
L 64.8 50.64 
L 64.8 32.52 
" style="fill:#deebf7;stroke:#ffffff;stroke-width:0.5;"/>
    <path clip-path="url(#p457d0444fb)" d="M 82.92 32.52 
L 101.04 32.52 
L 101.04 50.64 
L 82.92 50.64 
L 82.92 32.52 
" style="fill:#dce9f6;stroke:#ffffff;stroke-width:0.5;"/>
    <path clip-path="url(#p457d0444fb)" d="M 101.04 32.52 
L 119.16 32.52 
L 119.16 50.64 
L 101.04 50.64 
L 101.04 32.52 
" style="fill:#deebf7;stroke:#ffffff;stroke-width:0.5;"/>
    <path clip-path="url(#p457d0444fb)" d="M 119.16 32.52 
L 137.28 32.52 
L 137.28 50.64 
L 119.16 50.64 
L 119.16 32.52 
" style="fill:none;stroke:#ffffff;stroke-width:0.5;"/>
    <path clip-path="url(#p457d0444fb)" d="M 137.28 32.52 
L 155.4 32.52 
L 155.4 50.64 
L 137.28 50.64 
L 137.28 32.52 
" style="fill:none;stroke:#ffffff;stroke-width:0.5;"/>
    <path clip-path="url(#p457d0444fb)" d="M 155.4 32.52 
L 173.52 32.52 
L 173.52 50.64 
L 155.4 50.64 
L 155.4 32.52 
" style="fill:none;stroke:#ffffff;stroke-width:0.5;"/>
    <path clip-path="url(#p457d0444fb)" d="M 173.52 32.52 
L 191.64 32.52 
L 191.64 50.64 
L 173.52 50.64 
L 173.52 32.52 
" style="fill:none;stroke:#ffffff;stroke-width:0.5;"/>
    <path clip-path="url(#p457d0444fb)" d="M 191.64 32.52 
L 209.76 32.52 
L 209.76 50.64 
L 191.64 50.64 
L 191.64 32.52 
" style="fill:#deebf7;stroke:#ffffff;stroke-width:0.5;"/>
    <path clip-path="url(#p457d0444fb)" d="M 209.76 32.52 
L 227.88 32.52 
L 227.88 50.64 
L 209.76 50.64 
L 209.76 32.52 
" style="fill:none;stroke:#ffffff;stroke-width:0.5;"/>
    <path clip-path="url(#p457d0444fb)" d="M 227.88 32.52 
L 246 32.52 
L 246 50.64 
L 227.88 50.64 
L 227.88 32.52 
" style="fill:#92c4de;stroke:#ffffff;stroke-width:0.5;"/>
    <path clip-path="url(#p457d0444fb)" d="M 246 32.52 
L 264.12 32.52 
L 264.12 50.64 
L 246 50.64 
L 246 32.52 
" style="fill:#b0d2e7;stroke:#ffffff;stroke-width:0.5;"/>
    <path clip-path="url(#p457d0444fb)" d="M 264.12 32.52 
L 282.24 32.52 
L 282.24 50.64 
L 264.12 50.64 
L 264.12 32.52 
" style="fill:#afd1e7;stroke:#ffffff;stroke-width:0.5;"/>
    <path clip-path="url(#p457d0444fb)" d="M 282.24 32.52 
L 300.36 32.52 
L 300.36 50.64 
L 282.24 50.64 
L 282.24 32.52 
" style="fill:#cde0f1;stroke:#ffffff;stroke-width:0.5;"/>
    <path clip-path="url(#p457d0444fb)" d="M 300.36 32.52 
L 318.48 32.52 
L 318.48 50.64 
L 300.36 50.64 
L 300.36 32.52 
" style="fill:#d9e7f5;stroke:#ffffff;stroke-width:0.5;"/>
    <path clip-path="url(#p457d0444fb)" d="M 318.48 32.52 
L 336.6 32.52 
L 336.6 50.64 
L 318.48 50.64 
L 318.48 32.52 
" style="fill:#c7dbef;stroke:#ffffff;stroke-width:0.5;"/>
    <path clip-path="url(#p457d0444fb)" d="M 336.6 32.52 
L 354.72 32.52 
L 354.72 50.64 
L 336.6 50.64 
L 336.6 32.52 
" style="fill:#a5cde3;stroke:#ffffff;stroke-width:0.5;"/>
    <path clip-path="url(#p457d0444fb)" d="M 354.72 32.52 
L 372.84 32.52 
L 372.84 50.64 
L 354.72 50.64 
L 354.72 32.52 
" style="fill:none;stroke:#ffffff;stroke-width:0.5;"/>
    <path clip-path="url(#p457d0444fb)" d="M 372.84 32.52 
L 390.96 32.52 
L 390.96 50.64 
L 372.84 50.64 
L 372.84 32.52 
" style="fill:none;stroke:#ffffff;stroke-width:0.5;"/>
    <path clip-path="url(#p457d0444fb)" d="M 390.96 32.52 
L 409.08 32.52 
L 409.08 50.64 
L 390.96 50.64 
L 390.96 32.52 
" style="fill:#e0ecf8;stroke:#ffffff;stroke-width:0.5;"/>
    <path clip-path="url(#p457d0444fb)" d="M 409.08 32.52 
L 427.2 32.52 
L 427.2 50.64 
L 409.08 50.64 
L 409.08 32.52 
" style="fill:#e3eef8;stroke:#ffffff;stroke-width:0.5;"/>
    <path clip-path="url(#p457d0444fb)" d="M 64.8 50.64 
L 82.92 50.64 
L 82.92 68.76 
L 64.8 68.76 
L 64.8 50.64 
" style="fill:#abd0e6;stroke:#ffffff;stroke-width:0.5;"/>
    <path clip-path="url(#p457d0444fb)" d="M 82.92 50.64 
L 101.04 50.64 
L 101.04 68.76 
L 82.92 68.76 
L 82.92 50.64 
" style="fill:#d4e4f4;stroke:#ffffff;stroke-width:0.5;"/>
    <path clip-path="url(#p457d0444fb)" d="M 101.04 50.64 
L 119.16 50.64 
L 119.16 68.76 
L 101.04 68.76 
L 101.04 50.64 
" style="fill:#9cc9e1;stroke:#ffffff;stroke-width:0.5;"/>
    <path clip-path="url(#p457d0444fb)" d="M 119.16 50.64 
L 137.28 50.64 
L 137.28 68.76 
L 119.16 68.76 
L 119.16 50.64 
" style="fill:#4292c6;stroke:#ffffff;stroke-width:0.5;"/>
    <path clip-path="url(#p457d0444fb)" d="M 137.28 50.64 
L 155.4 50.64 
L 155.4 68.76 
L 137.28 68.76 
L 137.28 50.64 
" style="fill:#abd0e6;stroke:#ffffff;stroke-width:0.5;"/>
    <path clip-path="url(#p457d0444fb)" d="M 155.4 50.64 
L 173.52 50.64 
L 173.52 68.76 
L 155.4 68.76 
L 155.4 50.64 
" style="fill:#7db8da;stroke:#ffffff;stroke-width:0.5;"/>
    <path clip-path="url(#p457d0444fb)" d="M 173.52 50.64 
L 191.64 50.64 
L 191.64 68.76 
L 173.52 68.76 
L 173.52 50.64 
" style="fill:none;stroke:#ffffff;stroke-width:0.5;"/>
    <path clip-path="url(#p457d0444fb)" d="M 191.64 50.64 
L 209.76 50.64 
L 209.76 68.76 
L 191.64 68.76 
L 191.64 50.64 
" style="fill:#a3cce3;stroke:#ffffff;stroke-width:0.5;"/>
    <path clip-path="url(#p457d0444fb)" d="M 209.76 50.64 
L 227.88 50.64 
L 227.88 68.76 
L 209.76 68.76 
L 209.76 50.64 
" style="fill:#e1edf8;stroke:#ffffff;stroke-width:0.5;"/>
    <path clip-path="url(#p457d0444fb)" d="M 227.88 50.64 
L 246 50.64 
L 246 68.76 
L 227.88 68.76 
L 227.88 50.64 
" style="fill:#8fc2de;stroke:#ffffff;stroke-width:0.5;"/>
    <path clip-path="url(#p457d0444fb)" d="M 246 50.64 
L 264.12 50.64 
L 264.12 68.76 
L 246 68.76 
L 246 50.64 
" style="fill:#125ea6;stroke:#ffffff;stroke-width:0.5;"/>
    <path clip-path="url(#p457d0444fb)" d="M 264.12 50.64 
L 282.24 50.64 
L 282.24 68.76 
L 264.12 68.76 
L 264.12 50.64 
" style="fill:#08306b;stroke:#ffffff;stroke-width:0.5;"/>
    <path clip-path="url(#p457d0444fb)" d="M 282.24 50.64 
L 300.36 50.64 
L 300.36 68.76 
L 282.24 68.76 
L 282.24 50.64 
" style="fill:#65aad4;stroke:#ffffff;stroke-width:0.5;"/>
    <path clip-path="url(#p457d0444fb)" d="M 300.36 50.64 
L 318.48 50.64 
L 318.48 68.76 
L 300.36 68.76 
L 300.36 50.64 
" style="fill:#3989c1;stroke:#ffffff;stroke-width:0.5;"/>
    <path clip-path="url(#p457d0444fb)" d="M 318.48 50.64 
L 336.6 50.64 
L 336.6 68.76 
L 318.48 68.76 
L 318.48 50.64 
" style="fill:#2f7fbc;stroke:#ffffff;stroke-width:0.5;"/>
    <path clip-path="url(#p457d0444fb)" d="M 336.6 50.64 
L 354.72 50.64 
L 354.72 68.76 
L 336.6 68.76 
L 336.6 50.64 
" style="fill:#3282be;stroke:#ffffff;stroke-width:0.5;"/>
    <path clip-path="url(#p457d0444fb)" d="M 354.72 50.64 
L 372.84 50.64 
L 372.84 68.76 
L 354.72 68.76 
L 354.72 50.64 
" style="fill:#5da5d1;stroke:#ffffff;stroke-width:0.5;"/>
    <path clip-path="url(#p457d0444fb)" d="M 372.84 50.64 
L 390.96 50.64 
L 390.96 68.76 
L 372.84 68.76 
L 372.84 50.64 
" style="fill:none;stroke:#ffffff;stroke-width:0.5;"/>
    <path clip-path="url(#p457d0444fb)" d="M 390.96 50.64 
L 409.08 50.64 
L 409.08 68.76 
L 390.96 68.76 
L 390.96 50.64 
" style="fill:#8cc0dd;stroke:#ffffff;stroke-width:0.5;"/>
    <path clip-path="url(#p457d0444fb)" d="M 409.08 50.64 
L 427.2 50.64 
L 427.2 68.76 
L 409.08 68.76 
L 409.08 50.64 
" style="fill:#64a9d3;stroke:#ffffff;stroke-width:0.5;"/>
    <path clip-path="url(#p457d0444fb)" d="M 64.8 68.76 
L 82.92 68.76 
L 82.92 86.88 
L 64.8 86.88 
L 64.8 68.76 
" style="fill:#c4daee;stroke:#ffffff;stroke-width:0.5;"/>
    <path clip-path="url(#p457d0444fb)" d="M 82.92 68.76 
L 101.04 68.76 
L 101.04 86.88 
L 82.92 86.88 
L 82.92 68.76 
" style="fill:#cee0f2;stroke:#ffffff;stroke-width:0.5;"/>
    <path clip-path="url(#p457d0444fb)" d="M 101.04 68.76 
L 119.16 68.76 
L 119.16 86.88 
L 101.04 86.88 
L 101.04 68.76 
" style="fill:#e0ecf8;stroke:#ffffff;stroke-width:0.5;"/>
    <path clip-path="url(#p457d0444fb)" d="M 119.16 68.76 
L 137.28 68.76 
L 137.28 86.88 
L 119.16 86.88 
L 119.16 68.76 
" style="fill:#d6e6f4;stroke:#ffffff;stroke-width:0.5;"/>
    <path clip-path="url(#p457d0444fb)" d="M 137.28 68.76 
L 155.4 68.76 
L 155.4 86.88 
L 137.28 86.88 
L 137.28 68.76 
" style="fill:#b5d4e9;stroke:#ffffff;stroke-width:0.5;"/>
    <path clip-path="url(#p457d0444fb)" d="M 155.4 68.76 
L 173.52 68.76 
L 173.52 86.88 
L 155.4 86.88 
L 155.4 68.76 
" style="fill:#ddeaf7;stroke:#ffffff;stroke-width:0.5;"/>
    <path clip-path="url(#p457d0444fb)" d="M 173.52 68.76 
L 191.64 68.76 
L 191.64 86.88 
L 173.52 86.88 
L 173.52 68.76 
" style="fill:#cee0f2;stroke:#ffffff;stroke-width:0.5;"/>
    <path clip-path="url(#p457d0444fb)" d="M 191.64 68.76 
L 209.76 68.76 
L 209.76 86.88 
L 191.64 86.88 
L 191.64 68.76 
" style="fill:#d2e3f3;stroke:#ffffff;stroke-width:0.5;"/>
    <path clip-path="url(#p457d0444fb)" d="M 209.76 68.76 
L 227.88 68.76 
L 227.88 86.88 
L 209.76 86.88 
L 209.76 68.76 
" style="fill:#d1e2f3;stroke:#ffffff;stroke-width:0.5;"/>
    <path clip-path="url(#p457d0444fb)" d="M 227.88 68.76 
L 246 68.76 
L 246 86.88 
L 227.88 86.88 
L 227.88 68.76 
" style="fill:#7db8da;stroke:#ffffff;stroke-width:0.5;"/>
    <path clip-path="url(#p457d0444fb)" d="M 246 68.76 
L 264.12 68.76 
L 264.12 86.88 
L 246 86.88 
L 246 68.76 
" style="fill:#1460a8;stroke:#ffffff;stroke-width:0.5;"/>
    <path clip-path="url(#p457d0444fb)" d="M 264.12 68.76 
L 282.24 68.76 
L 282.24 86.88 
L 264.12 86.88 
L 264.12 68.76 
" style="fill:#4594c7;stroke:#ffffff;stroke-width:0.5;"/>
    <path clip-path="url(#p457d0444fb)" d="M 282.24 68.76 
L 300.36 68.76 
L 300.36 86.88 
L 282.24 86.88 
L 282.24 68.76 
" style="fill:#539ecd;stroke:#ffffff;stroke-width:0.5;"/>
    <path clip-path="url(#p457d0444fb)" d="M 300.36 68.76 
L 318.48 68.76 
L 318.48 86.88 
L 300.36 86.88 
L 300.36 68.76 
" style="fill:#d6e5f4;stroke:#ffffff;stroke-width:0.5;"/>
    <path clip-path="url(#p457d0444fb)" d="M 318.48 68.76 
L 336.6 68.76 
L 336.6 86.88 
L 318.48 86.88 
L 318.48 68.76 
" style="fill:#9ac8e0;stroke:#ffffff;stroke-width:0.5;"/>
    <path clip-path="url(#p457d0444fb)" d="M 336.6 68.76 
L 354.72 68.76 
L 354.72 86.88 
L 336.6 86.88 
L 336.6 68.76 
" style="fill:#cee0f2;stroke:#ffffff;stroke-width:0.5;"/>
    <path clip-path="url(#p457d0444fb)" d="M 354.72 68.76 
L 372.84 68.76 
L 372.84 86.88 
L 354.72 86.88 
L 354.72 68.76 
" style="fill:#c2d9ee;stroke:#ffffff;stroke-width:0.5;"/>
    <path clip-path="url(#p457d0444fb)" d="M 372.84 68.76 
L 390.96 68.76 
L 390.96 86.88 
L 372.84 86.88 
L 372.84 68.76 
" style="fill:#b5d4e9;stroke:#ffffff;stroke-width:0.5;"/>
    <path clip-path="url(#p457d0444fb)" d="M 390.96 68.76 
L 409.08 68.76 
L 409.08 86.88 
L 390.96 86.88 
L 390.96 68.76 
" style="fill:#b8d5ea;stroke:#ffffff;stroke-width:0.5;"/>
    <path clip-path="url(#p457d0444fb)" d="M 409.08 68.76 
L 427.2 68.76 
L 427.2 86.88 
L 409.08 86.88 
L 409.08 68.76 
" style="fill:#cbdef1;stroke:#ffffff;stroke-width:0.5;"/>
    <path clip-path="url(#p457d0444fb)" d="M 64.8 86.88 
L 82.92 86.88 
L 82.92 105 
L 64.8 105 
L 64.8 86.88 
" style="fill:#c3daee;stroke:#ffffff;stroke-width:0.5;"/>
    <path clip-path="url(#p457d0444fb)" d="M 82.92 86.88 
L 101.04 86.88 
L 101.04 105 
L 82.92 105 
L 82.92 86.88 
" style="fill:#cfe1f2;stroke:#ffffff;stroke-width:0.5;"/>
    <path clip-path="url(#p457d0444fb)" d="M 101.04 86.88 
L 119.16 86.88 
L 119.16 105 
L 101.04 105 
L 101.04 86.88 
" style="fill:none;stroke:#ffffff;stroke-width:0.5;"/>
    <path clip-path="url(#p457d0444fb)" d="M 119.16 86.88 
L 137.28 86.88 
L 137.28 105 
L 119.16 105 
L 119.16 86.88 
" style="fill:none;stroke:#ffffff;stroke-width:0.5;"/>
    <path clip-path="url(#p457d0444fb)" d="M 137.28 86.88 
L 155.4 86.88 
L 155.4 105 
L 137.28 105 
L 137.28 86.88 
" style="fill:#b2d2e8;stroke:#ffffff;stroke-width:0.5;"/>
    <path clip-path="url(#p457d0444fb)" d="M 155.4 86.88 
L 173.52 86.88 
L 173.52 105 
L 155.4 105 
L 155.4 86.88 
" style="fill:#bfd8ed;stroke:#ffffff;stroke-width:0.5;"/>
    <path clip-path="url(#p457d0444fb)" d="M 173.52 86.88 
L 191.64 86.88 
L 191.64 105 
L 173.52 105 
L 173.52 86.88 
" style="fill:none;stroke:#ffffff;stroke-width:0.5;"/>
    <path clip-path="url(#p457d0444fb)" d="M 191.64 86.88 
L 209.76 86.88 
L 209.76 105 
L 191.64 105 
L 191.64 86.88 
" style="fill:#d0e2f2;stroke:#ffffff;stroke-width:0.5;"/>
    <path clip-path="url(#p457d0444fb)" d="M 209.76 86.88 
L 227.88 86.88 
L 227.88 105 
L 209.76 105 
L 209.76 86.88 
" style="fill:#d6e6f4;stroke:#ffffff;stroke-width:0.5;"/>
    <path clip-path="url(#p457d0444fb)" d="M 227.88 86.88 
L 246 86.88 
L 246 105 
L 227.88 105 
L 227.88 86.88 
" style="fill:#add0e6;stroke:#ffffff;stroke-width:0.5;"/>
    <path clip-path="url(#p457d0444fb)" d="M 246 86.88 
L 264.12 86.88 
L 264.12 105 
L 246 105 
L 246 86.88 
" style="fill:#2c7cba;stroke:#ffffff;stroke-width:0.5;"/>
    <path clip-path="url(#p457d0444fb)" d="M 264.12 86.88 
L 282.24 86.88 
L 282.24 105 
L 264.12 105 
L 264.12 86.88 
" style="fill:#3b8bc2;stroke:#ffffff;stroke-width:0.5;"/>
    <path clip-path="url(#p457d0444fb)" d="M 282.24 86.88 
L 300.36 86.88 
L 300.36 105 
L 282.24 105 
L 282.24 86.88 
" style="fill:#1460a8;stroke:#ffffff;stroke-width:0.5;"/>
    <path clip-path="url(#p457d0444fb)" d="M 300.36 86.88 
L 318.48 86.88 
L 318.48 105 
L 300.36 105 
L 300.36 86.88 
" style="fill:none;stroke:#ffffff;stroke-width:0.5;"/>
    <path clip-path="url(#p457d0444fb)" d="M 318.48 86.88 
L 336.6 86.88 
L 336.6 105 
L 318.48 105 
L 318.48 86.88 
" style="fill:#c8dcf0;stroke:#ffffff;stroke-width:0.5;"/>
    <path clip-path="url(#p457d0444fb)" d="M 336.6 86.88 
L 354.72 86.88 
L 354.72 105 
L 336.6 105 
L 336.6 86.88 
" style="fill:#bcd7eb;stroke:#ffffff;stroke-width:0.5;"/>
    <path clip-path="url(#p457d0444fb)" d="M 354.72 86.88 
L 372.84 86.88 
L 372.84 105 
L 354.72 105 
L 354.72 86.88 
" style="fill:#b2d2e8;stroke:#ffffff;stroke-width:0.5;"/>
    <path clip-path="url(#p457d0444fb)" d="M 372.84 86.88 
L 390.96 86.88 
L 390.96 105 
L 372.84 105 
L 372.84 86.88 
" style="fill:none;stroke:#ffffff;stroke-width:0.5;"/>
    <path clip-path="url(#p457d0444fb)" d="M 390.96 86.88 
L 409.08 86.88 
L 409.08 105 
L 390.96 105 
L 390.96 86.88 
" style="fill:#d3e4f3;stroke:#ffffff;stroke-width:0.5;"/>
    <path clip-path="url(#p457d0444fb)" d="M 409.08 86.88 
L 427.2 86.88 
L 427.2 105 
L 409.08 105 
L 409.08 86.88 
" style="fill:none;stroke:#ffffff;stroke-width:0.5;"/>
   </g>
   <g id="matplotlib.axis_1">
    <g id="xtick_1">
     <g id="line2d_1">
      <defs>
       <path d="M 0 0 
L 0 3.5 
" id="mb6b66fa818" style="stroke:#000000;stroke-width:0.8;"/>
      </defs>
      <g>
       <use style="stroke:#000000;stroke-width:0.8;" x="73.86" xlink:href="#mb6b66fa818" y="105"/>
      </g>
     </g>
     <g id="text_1">
      <!-- feature_extraction -->
      <defs>
       <path d="M 37.109375 75.984375 
L 37.109375 68.5 
L 28.515625 68.5 
Q 23.6875 68.5 21.796875 66.546875 
Q 19.921875 64.59375 19.921875 59.515625 
L 19.921875 54.6875 
L 34.71875 54.6875 
L 34.71875 47.703125 
L 19.921875 47.703125 
L 19.921875 0 
L 10.890625 0 
L 10.890625 47.703125 
L 2.296875 47.703125 
L 2.296875 54.6875 
L 10.890625 54.6875 
L 10.890625 58.5 
Q 10.890625 67.625 15.140625 71.796875 
Q 19.390625 75.984375 28.609375 75.984375 
z
" id="DejaVuSans-102"/>
       <path d="M 56.203125 29.59375 
L 56.203125 25.203125 
L 14.890625 25.203125 
Q 15.484375 15.921875 20.484375 11.0625 
Q 25.484375 6.203125 34.421875 6.203125 
Q 39.59375 6.203125 44.453125 7.46875 
Q 49.3125 8.734375 54.109375 11.28125 
L 54.109375 2.78125 
Q 49.265625 0.734375 44.1875 -0.34375 
Q 39.109375 -1.421875 33.890625 -1.421875 
Q 20.796875 -1.421875 13.15625 6.1875 
Q 5.515625 13.8125 5.515625 26.8125 
Q 5.515625 40.234375 12.765625 48.109375 
Q 20.015625 56 32.328125 56 
Q 43.359375 56 49.78125 48.890625 
Q 56.203125 41.796875 56.203125 29.59375 
z
M 47.21875 32.234375 
Q 47.125 39.59375 43.09375 43.984375 
Q 39.0625 48.390625 32.421875 48.390625 
Q 24.90625 48.390625 20.390625 44.140625 
Q 15.875 39.890625 15.1875 32.171875 
z
" id="DejaVuSans-101"/>
       <path d="M 34.28125 27.484375 
Q 23.390625 27.484375 19.1875 25 
Q 14.984375 22.515625 14.984375 16.5 
Q 14.984375 11.71875 18.140625 8.90625 
Q 21.296875 6.109375 26.703125 6.109375 
Q 34.1875 6.109375 38.703125 11.40625 
Q 43.21875 16.703125 43.21875 25.484375 
L 43.21875 27.484375 
z
M 52.203125 31.203125 
L 52.203125 0 
L 43.21875 0 
L 43.21875 8.296875 
Q 40.140625 3.328125 35.546875 0.953125 
Q 30.953125 -1.421875 24.3125 -1.421875 
Q 15.921875 -1.421875 10.953125 3.296875 
Q 6 8.015625 6 15.921875 
Q 6 25.140625 12.171875 29.828125 
Q 18.359375 34.515625 30.609375 34.515625 
L 43.21875 34.515625 
L 43.21875 35.40625 
Q 43.21875 41.609375 39.140625 45 
Q 35.0625 48.390625 27.6875 48.390625 
Q 23 48.390625 18.546875 47.265625 
Q 14.109375 46.140625 10.015625 43.890625 
L 10.015625 52.203125 
Q 14.9375 54.109375 19.578125 55.046875 
Q 24.21875 56 28.609375 56 
Q 40.484375 56 46.34375 49.84375 
Q 52.203125 43.703125 52.203125 31.203125 
z
" id="DejaVuSans-97"/>
       <path d="M 18.3125 70.21875 
L 18.3125 54.6875 
L 36.8125 54.6875 
L 36.8125 47.703125 
L 18.3125 47.703125 
L 18.3125 18.015625 
Q 18.3125 11.328125 20.140625 9.421875 
Q 21.96875 7.515625 27.59375 7.515625 
L 36.8125 7.515625 
L 36.8125 0 
L 27.59375 0 
Q 17.1875 0 13.234375 3.875 
Q 9.28125 7.765625 9.28125 18.015625 
L 9.28125 47.703125 
L 2.6875 47.703125 
L 2.6875 54.6875 
L 9.28125 54.6875 
L 9.28125 70.21875 
z
" id="DejaVuSans-116"/>
       <path d="M 8.5 21.578125 
L 8.5 54.6875 
L 17.484375 54.6875 
L 17.484375 21.921875 
Q 17.484375 14.15625 20.5 10.265625 
Q 23.53125 6.390625 29.59375 6.390625 
Q 36.859375 6.390625 41.078125 11.03125 
Q 45.3125 15.671875 45.3125 23.6875 
L 45.3125 54.6875 
L 54.296875 54.6875 
L 54.296875 0 
L 45.3125 0 
L 45.3125 8.40625 
Q 42.046875 3.421875 37.71875 1 
Q 33.40625 -1.421875 27.6875 -1.421875 
Q 18.265625 -1.421875 13.375 4.4375 
Q 8.5 10.296875 8.5 21.578125 
z
M 31.109375 56 
z
" id="DejaVuSans-117"/>
       <path d="M 41.109375 46.296875 
Q 39.59375 47.171875 37.8125 47.578125 
Q 36.03125 48 33.890625 48 
Q 26.265625 48 22.1875 43.046875 
Q 18.109375 38.09375 18.109375 28.8125 
L 18.109375 0 
L 9.078125 0 
L 9.078125 54.6875 
L 18.109375 54.6875 
L 18.109375 46.1875 
Q 20.953125 51.171875 25.484375 53.578125 
Q 30.03125 56 36.53125 56 
Q 37.453125 56 38.578125 55.875 
Q 39.703125 55.765625 41.0625 55.515625 
z
" id="DejaVuSans-114"/>
       <path d="M 50.984375 -16.609375 
L 50.984375 -23.578125 
L -0.984375 -23.578125 
L -0.984375 -16.609375 
z
" id="DejaVuSans-95"/>
       <path d="M 54.890625 54.6875 
L 35.109375 28.078125 
L 55.90625 0 
L 45.3125 0 
L 29.390625 21.484375 
L 13.484375 0 
L 2.875 0 
L 24.125 28.609375 
L 4.6875 54.6875 
L 15.28125 54.6875 
L 29.78125 35.203125 
L 44.28125 54.6875 
z
" id="DejaVuSans-120"/>
       <path d="M 48.78125 52.59375 
L 48.78125 44.1875 
Q 44.96875 46.296875 41.140625 47.34375 
Q 37.3125 48.390625 33.40625 48.390625 
Q 24.65625 48.390625 19.8125 42.84375 
Q 14.984375 37.3125 14.984375 27.296875 
Q 14.984375 17.28125 19.8125 11.734375 
Q 24.65625 6.203125 33.40625 6.203125 
Q 37.3125 6.203125 41.140625 7.25 
Q 44.96875 8.296875 48.78125 10.40625 
L 48.78125 2.09375 
Q 45.015625 0.34375 40.984375 -0.53125 
Q 36.96875 -1.421875 32.421875 -1.421875 
Q 20.0625 -1.421875 12.78125 6.34375 
Q 5.515625 14.109375 5.515625 27.296875 
Q 5.515625 40.671875 12.859375 48.328125 
Q 20.21875 56 33.015625 56 
Q 37.15625 56 41.109375 55.140625 
Q 45.0625 54.296875 48.78125 52.59375 
z
" id="DejaVuSans-99"/>
       <path d="M 9.421875 54.6875 
L 18.40625 54.6875 
L 18.40625 0 
L 9.421875 0 
z
M 9.421875 75.984375 
L 18.40625 75.984375 
L 18.40625 64.59375 
L 9.421875 64.59375 
z
" id="DejaVuSans-105"/>
       <path d="M 30.609375 48.390625 
Q 23.390625 48.390625 19.1875 42.75 
Q 14.984375 37.109375 14.984375 27.296875 
Q 14.984375 17.484375 19.15625 11.84375 
Q 23.34375 6.203125 30.609375 6.203125 
Q 37.796875 6.203125 41.984375 11.859375 
Q 46.1875 17.53125 46.1875 27.296875 
Q 46.1875 37.015625 41.984375 42.703125 
Q 37.796875 48.390625 30.609375 48.390625 
z
M 30.609375 56 
Q 42.328125 56 49.015625 48.375 
Q 55.71875 40.765625 55.71875 27.296875 
Q 55.71875 13.875 49.015625 6.21875 
Q 42.328125 -1.421875 30.609375 -1.421875 
Q 18.84375 -1.421875 12.171875 6.21875 
Q 5.515625 13.875 5.515625 27.296875 
Q 5.515625 40.765625 12.171875 48.375 
Q 18.84375 56 30.609375 56 
z
" id="DejaVuSans-111"/>
       <path d="M 54.890625 33.015625 
L 54.890625 0 
L 45.90625 0 
L 45.90625 32.71875 
Q 45.90625 40.484375 42.875 44.328125 
Q 39.84375 48.1875 33.796875 48.1875 
Q 26.515625 48.1875 22.3125 43.546875 
Q 18.109375 38.921875 18.109375 30.90625 
L 18.109375 0 
L 9.078125 0 
L 9.078125 54.6875 
L 18.109375 54.6875 
L 18.109375 46.1875 
Q 21.34375 51.125 25.703125 53.5625 
Q 30.078125 56 35.796875 56 
Q 45.21875 56 50.046875 50.171875 
Q 54.890625 44.34375 54.890625 33.015625 
z
" id="DejaVuSans-110"/>
      </defs>
      <g transform="translate(76.480313 203.807813)rotate(-90)scale(0.1 -0.1)">
       <use xlink:href="#DejaVuSans-102"/>
       <use x="35.205078" xlink:href="#DejaVuSans-101"/>
       <use x="96.728516" xlink:href="#DejaVuSans-97"/>
       <use x="158.007812" xlink:href="#DejaVuSans-116"/>
       <use x="197.216797" xlink:href="#DejaVuSans-117"/>
       <use x="260.595703" xlink:href="#DejaVuSans-114"/>
       <use x="299.458984" xlink:href="#DejaVuSans-101"/>
       <use x="360.982422" xlink:href="#DejaVuSans-95"/>
       <use x="410.982422" xlink:href="#DejaVuSans-101"/>
       <use x="470.755859" xlink:href="#DejaVuSans-120"/>
       <use x="529.935547" xlink:href="#DejaVuSans-116"/>
       <use x="569.144531" xlink:href="#DejaVuSans-114"/>
       <use x="610.257812" xlink:href="#DejaVuSans-97"/>
       <use x="671.537109" xlink:href="#DejaVuSans-99"/>
       <use x="726.517578" xlink:href="#DejaVuSans-116"/>
       <use x="765.726562" xlink:href="#DejaVuSans-105"/>
       <use x="793.509766" xlink:href="#DejaVuSans-111"/>
       <use x="854.691406" xlink:href="#DejaVuSans-110"/>
      </g>
     </g>
    </g>
    <g id="xtick_2">
     <g id="line2d_2">
      <g>
       <use style="stroke:#000000;stroke-width:0.8;" x="91.98" xlink:href="#mb6b66fa818" y="105"/>
      </g>
     </g>
     <g id="text_2">
      <!-- segmentation -->
      <defs>
       <path d="M 44.28125 53.078125 
L 44.28125 44.578125 
Q 40.484375 46.53125 36.375 47.5 
Q 32.28125 48.484375 27.875 48.484375 
Q 21.1875 48.484375 17.84375 46.4375 
Q 14.5 44.390625 14.5 40.28125 
Q 14.5 37.15625 16.890625 35.375 
Q 19.28125 33.59375 26.515625 31.984375 
L 29.59375 31.296875 
Q 39.15625 29.25 43.1875 25.515625 
Q 47.21875 21.78125 47.21875 15.09375 
Q 47.21875 7.46875 41.1875 3.015625 
Q 35.15625 -1.421875 24.609375 -1.421875 
Q 20.21875 -1.421875 15.453125 -0.5625 
Q 10.6875 0.296875 5.421875 2 
L 5.421875 11.28125 
Q 10.40625 8.6875 15.234375 7.390625 
Q 20.0625 6.109375 24.8125 6.109375 
Q 31.15625 6.109375 34.5625 8.28125 
Q 37.984375 10.453125 37.984375 14.40625 
Q 37.984375 18.0625 35.515625 20.015625 
Q 33.0625 21.96875 24.703125 23.78125 
L 21.578125 24.515625 
Q 13.234375 26.265625 9.515625 29.90625 
Q 5.8125 33.546875 5.8125 39.890625 
Q 5.8125 47.609375 11.28125 51.796875 
Q 16.75 56 26.8125 56 
Q 31.78125 56 36.171875 55.265625 
Q 40.578125 54.546875 44.28125 53.078125 
z
" id="DejaVuSans-115"/>
       <path d="M 45.40625 27.984375 
Q 45.40625 37.75 41.375 43.109375 
Q 37.359375 48.484375 30.078125 48.484375 
Q 22.859375 48.484375 18.828125 43.109375 
Q 14.796875 37.75 14.796875 27.984375 
Q 14.796875 18.265625 18.828125 12.890625 
Q 22.859375 7.515625 30.078125 7.515625 
Q 37.359375 7.515625 41.375 12.890625 
Q 45.40625 18.265625 45.40625 27.984375 
z
M 54.390625 6.78125 
Q 54.390625 -7.171875 48.1875 -13.984375 
Q 42 -20.796875 29.203125 -20.796875 
Q 24.46875 -20.796875 20.265625 -20.09375 
Q 16.0625 -19.390625 12.109375 -17.921875 
L 12.109375 -9.1875 
Q 16.0625 -11.328125 19.921875 -12.34375 
Q 23.78125 -13.375 27.78125 -13.375 
Q 36.625 -13.375 41.015625 -8.765625 
Q 45.40625 -4.15625 45.40625 5.171875 
L 45.40625 9.625 
Q 42.625 4.78125 38.28125 2.390625 
Q 33.9375 0 27.875 0 
Q 17.828125 0 11.671875 7.65625 
Q 5.515625 15.328125 5.515625 27.984375 
Q 5.515625 40.671875 11.671875 48.328125 
Q 17.828125 56 27.875 56 
Q 33.9375 56 38.28125 53.609375 
Q 42.625 51.21875 45.40625 46.390625 
L 45.40625 54.6875 
L 54.390625 54.6875 
z
" id="DejaVuSans-103"/>
       <path d="M 52 44.1875 
Q 55.375 50.25 60.0625 53.125 
Q 64.75 56 71.09375 56 
Q 79.640625 56 84.28125 50.015625 
Q 88.921875 44.046875 88.921875 33.015625 
L 88.921875 0 
L 79.890625 0 
L 79.890625 32.71875 
Q 79.890625 40.578125 77.09375 44.375 
Q 74.3125 48.1875 68.609375 48.1875 
Q 61.625 48.1875 57.5625 43.546875 
Q 53.515625 38.921875 53.515625 30.90625 
L 53.515625 0 
L 44.484375 0 
L 44.484375 32.71875 
Q 44.484375 40.625 41.703125 44.40625 
Q 38.921875 48.1875 33.109375 48.1875 
Q 26.21875 48.1875 22.15625 43.53125 
Q 18.109375 38.875 18.109375 30.90625 
L 18.109375 0 
L 9.078125 0 
L 9.078125 54.6875 
L 18.109375 54.6875 
L 18.109375 46.1875 
Q 21.1875 51.21875 25.484375 53.609375 
Q 29.78125 56 35.6875 56 
Q 41.65625 56 45.828125 52.96875 
Q 50 49.953125 52 44.1875 
z
" id="DejaVuSans-109"/>
      </defs>
      <g transform="translate(94.739375 181.145312)rotate(-90)scale(0.1 -0.1)">
       <use xlink:href="#DejaVuSans-115"/>
       <use x="52.099609" xlink:href="#DejaVuSans-101"/>
       <use x="113.623047" xlink:href="#DejaVuSans-103"/>
       <use x="177.099609" xlink:href="#DejaVuSans-109"/>
       <use x="274.511719" xlink:href="#DejaVuSans-101"/>
       <use x="336.035156" xlink:href="#DejaVuSans-110"/>
       <use x="399.414062" xlink:href="#DejaVuSans-116"/>
       <use x="438.623047" xlink:href="#DejaVuSans-97"/>
       <use x="499.902344" xlink:href="#DejaVuSans-116"/>
       <use x="539.111328" xlink:href="#DejaVuSans-105"/>
       <use x="566.894531" xlink:href="#DejaVuSans-111"/>
       <use x="628.076172" xlink:href="#DejaVuSans-110"/>
      </g>
     </g>
    </g>
    <g id="xtick_3">
     <g id="line2d_3">
      <g>
       <use style="stroke:#000000;stroke-width:0.8;" x="110.1" xlink:href="#mb6b66fa818" y="105"/>
      </g>
     </g>
     <g id="text_3">
      <!-- clustering -->
      <defs>
       <path d="M 9.421875 75.984375 
L 18.40625 75.984375 
L 18.40625 0 
L 9.421875 0 
z
" id="DejaVuSans-108"/>
      </defs>
      <g transform="translate(112.859375 161.471875)rotate(-90)scale(0.1 -0.1)">
       <use xlink:href="#DejaVuSans-99"/>
       <use x="54.980469" xlink:href="#DejaVuSans-108"/>
       <use x="82.763672" xlink:href="#DejaVuSans-117"/>
       <use x="146.142578" xlink:href="#DejaVuSans-115"/>
       <use x="198.242188" xlink:href="#DejaVuSans-116"/>
       <use x="237.451172" xlink:href="#DejaVuSans-101"/>
       <use x="298.974609" xlink:href="#DejaVuSans-114"/>
       <use x="340.087891" xlink:href="#DejaVuSans-105"/>
       <use x="367.871094" xlink:href="#DejaVuSans-110"/>
       <use x="431.25" xlink:href="#DejaVuSans-103"/>
      </g>
     </g>
    </g>
    <g id="xtick_4">
     <g id="line2d_4">
      <g>
       <use style="stroke:#000000;stroke-width:0.8;" x="128.22" xlink:href="#mb6b66fa818" y="105"/>
      </g>
     </g>
     <g id="text_4">
      <!-- classification -->
      <g transform="translate(130.979375 176.68125)rotate(-90)scale(0.1 -0.1)">
       <use xlink:href="#DejaVuSans-99"/>
       <use x="54.980469" xlink:href="#DejaVuSans-108"/>
       <use x="82.763672" xlink:href="#DejaVuSans-97"/>
       <use x="144.042969" xlink:href="#DejaVuSans-115"/>
       <use x="196.142578" xlink:href="#DejaVuSans-115"/>
       <use x="248.242188" xlink:href="#DejaVuSans-105"/>
       <use x="276.025391" xlink:href="#DejaVuSans-102"/>
       <use x="311.230469" xlink:href="#DejaVuSans-105"/>
       <use x="339.013672" xlink:href="#DejaVuSans-99"/>
       <use x="393.994141" xlink:href="#DejaVuSans-97"/>
       <use x="455.273438" xlink:href="#DejaVuSans-116"/>
       <use x="494.482422" xlink:href="#DejaVuSans-105"/>
       <use x="522.265625" xlink:href="#DejaVuSans-111"/>
       <use x="583.447266" xlink:href="#DejaVuSans-110"/>
      </g>
     </g>
    </g>
    <g id="xtick_5">
     <g id="line2d_5">
      <g>
       <use style="stroke:#000000;stroke-width:0.8;" x="146.34" xlink:href="#mb6b66fa818" y="105"/>
      </g>
     </g>
     <g id="text_5">
      <!-- neural_networks -->
      <defs>
       <path d="M 4.203125 54.6875 
L 13.1875 54.6875 
L 24.421875 12.015625 
L 35.59375 54.6875 
L 46.1875 54.6875 
L 57.421875 12.015625 
L 68.609375 54.6875 
L 77.59375 54.6875 
L 63.28125 0 
L 52.6875 0 
L 40.921875 44.828125 
L 29.109375 0 
L 18.5 0 
z
" id="DejaVuSans-119"/>
       <path d="M 9.078125 75.984375 
L 18.109375 75.984375 
L 18.109375 31.109375 
L 44.921875 54.6875 
L 56.390625 54.6875 
L 27.390625 29.109375 
L 57.625 0 
L 45.90625 0 
L 18.109375 26.703125 
L 18.109375 0 
L 9.078125 0 
z
" id="DejaVuSans-107"/>
      </defs>
      <g transform="translate(148.960313 194.664062)rotate(-90)scale(0.1 -0.1)">
       <use xlink:href="#DejaVuSans-110"/>
       <use x="63.378906" xlink:href="#DejaVuSans-101"/>
       <use x="124.902344" xlink:href="#DejaVuSans-117"/>
       <use x="188.28125" xlink:href="#DejaVuSans-114"/>
       <use x="229.394531" xlink:href="#DejaVuSans-97"/>
       <use x="290.673828" xlink:href="#DejaVuSans-108"/>
       <use x="318.457031" xlink:href="#DejaVuSans-95"/>
       <use x="368.457031" xlink:href="#DejaVuSans-110"/>
       <use x="431.835938" xlink:href="#DejaVuSans-101"/>
       <use x="493.359375" xlink:href="#DejaVuSans-116"/>
       <use x="532.568359" xlink:href="#DejaVuSans-119"/>
       <use x="614.355469" xlink:href="#DejaVuSans-111"/>
       <use x="675.537109" xlink:href="#DejaVuSans-114"/>
       <use x="716.650391" xlink:href="#DejaVuSans-107"/>
       <use x="774.560547" xlink:href="#DejaVuSans-115"/>
      </g>
     </g>
    </g>
    <g id="xtick_6">
     <g id="line2d_6">
      <g>
       <use style="stroke:#000000;stroke-width:0.8;" x="164.46" xlink:href="#mb6b66fa818" y="105"/>
      </g>
     </g>
     <g id="text_6">
      <!-- reinforcement_learning -->
      <g transform="translate(167.080313 228.279688)rotate(-90)scale(0.1 -0.1)">
       <use xlink:href="#DejaVuSans-114"/>
       <use x="38.863281" xlink:href="#DejaVuSans-101"/>
       <use x="100.386719" xlink:href="#DejaVuSans-105"/>
       <use x="128.169922" xlink:href="#DejaVuSans-110"/>
       <use x="191.548828" xlink:href="#DejaVuSans-102"/>
       <use x="226.753906" xlink:href="#DejaVuSans-111"/>
       <use x="287.935547" xlink:href="#DejaVuSans-114"/>
       <use x="326.798828" xlink:href="#DejaVuSans-99"/>
       <use x="381.779297" xlink:href="#DejaVuSans-101"/>
       <use x="443.302734" xlink:href="#DejaVuSans-109"/>
       <use x="540.714844" xlink:href="#DejaVuSans-101"/>
       <use x="602.238281" xlink:href="#DejaVuSans-110"/>
       <use x="665.617188" xlink:href="#DejaVuSans-116"/>
       <use x="704.826172" xlink:href="#DejaVuSans-95"/>
       <use x="754.826172" xlink:href="#DejaVuSans-108"/>
       <use x="782.609375" xlink:href="#DejaVuSans-101"/>
       <use x="844.132812" xlink:href="#DejaVuSans-97"/>
       <use x="905.412109" xlink:href="#DejaVuSans-114"/>
       <use x="944.775391" xlink:href="#DejaVuSans-110"/>
       <use x="1008.154297" xlink:href="#DejaVuSans-105"/>
       <use x="1035.9375" xlink:href="#DejaVuSans-110"/>
       <use x="1099.316406" xlink:href="#DejaVuSans-103"/>
      </g>
     </g>
    </g>
    <g id="xtick_7">
     <g id="line2d_7">
      <g>
       <use style="stroke:#000000;stroke-width:0.8;" x="182.58" xlink:href="#mb6b66fa818" y="105"/>
      </g>
     </g>
     <g id="text_7">
      <!-- generative_adversarial_networks -->
      <defs>
       <path d="M 2.984375 54.6875 
L 12.5 54.6875 
L 29.59375 8.796875 
L 46.6875 54.6875 
L 56.203125 54.6875 
L 35.6875 0 
L 23.484375 0 
z
" id="DejaVuSans-118"/>
       <path d="M 45.40625 46.390625 
L 45.40625 75.984375 
L 54.390625 75.984375 
L 54.390625 0 
L 45.40625 0 
L 45.40625 8.203125 
Q 42.578125 3.328125 38.25 0.953125 
Q 33.9375 -1.421875 27.875 -1.421875 
Q 17.96875 -1.421875 11.734375 6.484375 
Q 5.515625 14.40625 5.515625 27.296875 
Q 5.515625 40.1875 11.734375 48.09375 
Q 17.96875 56 27.875 56 
Q 33.9375 56 38.25 53.625 
Q 42.578125 51.265625 45.40625 46.390625 
z
M 14.796875 27.296875 
Q 14.796875 17.390625 18.875 11.75 
Q 22.953125 6.109375 30.078125 6.109375 
Q 37.203125 6.109375 41.296875 11.75 
Q 45.40625 17.390625 45.40625 27.296875 
Q 45.40625 37.203125 41.296875 42.84375 
Q 37.203125 48.484375 30.078125 48.484375 
Q 22.953125 48.484375 18.875 42.84375 
Q 14.796875 37.203125 14.796875 27.296875 
z
" id="DejaVuSans-100"/>
      </defs>
      <g transform="translate(185.200312 277.6125)rotate(-90)scale(0.1 -0.1)">
       <use xlink:href="#DejaVuSans-103"/>
       <use x="63.476562" xlink:href="#DejaVuSans-101"/>
       <use x="125" xlink:href="#DejaVuSans-110"/>
       <use x="188.378906" xlink:href="#DejaVuSans-101"/>
       <use x="249.902344" xlink:href="#DejaVuSans-114"/>
       <use x="291.015625" xlink:href="#DejaVuSans-97"/>
       <use x="352.294922" xlink:href="#DejaVuSans-116"/>
       <use x="391.503906" xlink:href="#DejaVuSans-105"/>
       <use x="419.287109" xlink:href="#DejaVuSans-118"/>
       <use x="478.466797" xlink:href="#DejaVuSans-101"/>
       <use x="539.990234" xlink:href="#DejaVuSans-95"/>
       <use x="589.990234" xlink:href="#DejaVuSans-97"/>
       <use x="651.269531" xlink:href="#DejaVuSans-100"/>
       <use x="714.746094" xlink:href="#DejaVuSans-118"/>
       <use x="773.925781" xlink:href="#DejaVuSans-101"/>
       <use x="835.449219" xlink:href="#DejaVuSans-114"/>
       <use x="876.5625" xlink:href="#DejaVuSans-115"/>
       <use x="928.662109" xlink:href="#DejaVuSans-97"/>
       <use x="989.941406" xlink:href="#DejaVuSans-114"/>
       <use x="1031.054688" xlink:href="#DejaVuSans-105"/>
       <use x="1058.837891" xlink:href="#DejaVuSans-97"/>
       <use x="1120.117188" xlink:href="#DejaVuSans-108"/>
       <use x="1147.900391" xlink:href="#DejaVuSans-95"/>
       <use x="1197.900391" xlink:href="#DejaVuSans-110"/>
       <use x="1261.279297" xlink:href="#DejaVuSans-101"/>
       <use x="1322.802734" xlink:href="#DejaVuSans-116"/>
       <use x="1362.011719" xlink:href="#DejaVuSans-119"/>
       <use x="1443.798828" xlink:href="#DejaVuSans-111"/>
       <use x="1504.980469" xlink:href="#DejaVuSans-114"/>
       <use x="1546.09375" xlink:href="#DejaVuSans-107"/>
       <use x="1604.003906" xlink:href="#DejaVuSans-115"/>
      </g>
     </g>
    </g>
    <g id="xtick_8">
     <g id="line2d_8">
      <g>
       <use style="stroke:#000000;stroke-width:0.8;" x="200.7" xlink:href="#mb6b66fa818" y="105"/>
      </g>
     </g>
     <g id="text_8">
      <!-- anomaly_detection -->
      <defs>
       <path d="M 32.171875 -5.078125 
Q 28.375 -14.84375 24.75 -17.8125 
Q 21.140625 -20.796875 15.09375 -20.796875 
L 7.90625 -20.796875 
L 7.90625 -13.28125 
L 13.1875 -13.28125 
Q 16.890625 -13.28125 18.9375 -11.515625 
Q 21 -9.765625 23.484375 -3.21875 
L 25.09375 0.875 
L 2.984375 54.6875 
L 12.5 54.6875 
L 29.59375 11.921875 
L 46.6875 54.6875 
L 56.203125 54.6875 
z
" id="DejaVuSans-121"/>
      </defs>
      <g transform="translate(203.320313 207.378125)rotate(-90)scale(0.1 -0.1)">
       <use xlink:href="#DejaVuSans-97"/>
       <use x="61.279297" xlink:href="#DejaVuSans-110"/>
       <use x="124.658203" xlink:href="#DejaVuSans-111"/>
       <use x="185.839844" xlink:href="#DejaVuSans-109"/>
       <use x="283.251953" xlink:href="#DejaVuSans-97"/>
       <use x="344.53125" xlink:href="#DejaVuSans-108"/>
       <use x="372.314453" xlink:href="#DejaVuSans-121"/>
       <use x="431.494141" xlink:href="#DejaVuSans-95"/>
       <use x="481.494141" xlink:href="#DejaVuSans-100"/>
       <use x="544.970703" xlink:href="#DejaVuSans-101"/>
       <use x="606.494141" xlink:href="#DejaVuSans-116"/>
       <use x="645.703125" xlink:href="#DejaVuSans-101"/>
       <use x="707.226562" xlink:href="#DejaVuSans-99"/>
       <use x="762.207031" xlink:href="#DejaVuSans-116"/>
       <use x="801.416016" xlink:href="#DejaVuSans-105"/>
       <use x="829.199219" xlink:href="#DejaVuSans-111"/>
       <use x="890.380859" xlink:href="#DejaVuSans-110"/>
      </g>
     </g>
    </g>
    <g id="xtick_9">
     <g id="line2d_9">
      <g>
       <use style="stroke:#000000;stroke-width:0.8;" x="218.82" xlink:href="#mb6b66fa818" y="105"/>
      </g>
     </g>
     <g id="text_9">
      <!-- dimensionality_reduction -->
      <g transform="translate(221.440313 237.703125)rotate(-90)scale(0.1 -0.1)">
       <use xlink:href="#DejaVuSans-100"/>
       <use x="63.476562" xlink:href="#DejaVuSans-105"/>
       <use x="91.259766" xlink:href="#DejaVuSans-109"/>
       <use x="188.671875" xlink:href="#DejaVuSans-101"/>
       <use x="250.195312" xlink:href="#DejaVuSans-110"/>
       <use x="313.574219" xlink:href="#DejaVuSans-115"/>
       <use x="365.673828" xlink:href="#DejaVuSans-105"/>
       <use x="393.457031" xlink:href="#DejaVuSans-111"/>
       <use x="454.638672" xlink:href="#DejaVuSans-110"/>
       <use x="518.017578" xlink:href="#DejaVuSans-97"/>
       <use x="579.296875" xlink:href="#DejaVuSans-108"/>
       <use x="607.080078" xlink:href="#DejaVuSans-105"/>
       <use x="634.863281" xlink:href="#DejaVuSans-116"/>
       <use x="674.072266" xlink:href="#DejaVuSans-121"/>
       <use x="733.251953" xlink:href="#DejaVuSans-95"/>
       <use x="783.251953" xlink:href="#DejaVuSans-114"/>
       <use x="822.115234" xlink:href="#DejaVuSans-101"/>
       <use x="883.638672" xlink:href="#DejaVuSans-100"/>
       <use x="947.115234" xlink:href="#DejaVuSans-117"/>
       <use x="1010.494141" xlink:href="#DejaVuSans-99"/>
       <use x="1065.474609" xlink:href="#DejaVuSans-116"/>
       <use x="1104.683594" xlink:href="#DejaVuSans-105"/>
       <use x="1132.466797" xlink:href="#DejaVuSans-111"/>
       <use x="1193.648438" xlink:href="#DejaVuSans-110"/>
      </g>
     </g>
    </g>
    <g id="xtick_10">
     <g id="line2d_10">
      <g>
       <use style="stroke:#000000;stroke-width:0.8;" x="236.94" xlink:href="#mb6b66fa818" y="105"/>
      </g>
     </g>
     <g id="text_10">
      <!-- data_visualization -->
      <defs>
       <path d="M 5.515625 54.6875 
L 48.1875 54.6875 
L 48.1875 46.484375 
L 14.40625 7.171875 
L 48.1875 7.171875 
L 48.1875 0 
L 4.296875 0 
L 4.296875 8.203125 
L 38.09375 47.515625 
L 5.515625 47.515625 
z
" id="DejaVuSans-122"/>
      </defs>
      <g transform="translate(239.560313 201.984375)rotate(-90)scale(0.1 -0.1)">
       <use xlink:href="#DejaVuSans-100"/>
       <use x="63.476562" xlink:href="#DejaVuSans-97"/>
       <use x="124.755859" xlink:href="#DejaVuSans-116"/>
       <use x="163.964844" xlink:href="#DejaVuSans-97"/>
       <use x="225.244141" xlink:href="#DejaVuSans-95"/>
       <use x="275.244141" xlink:href="#DejaVuSans-118"/>
       <use x="334.423828" xlink:href="#DejaVuSans-105"/>
       <use x="362.207031" xlink:href="#DejaVuSans-115"/>
       <use x="414.306641" xlink:href="#DejaVuSans-117"/>
       <use x="477.685547" xlink:href="#DejaVuSans-97"/>
       <use x="538.964844" xlink:href="#DejaVuSans-108"/>
       <use x="566.748047" xlink:href="#DejaVuSans-105"/>
       <use x="594.53125" xlink:href="#DejaVuSans-122"/>
       <use x="647.021484" xlink:href="#DejaVuSans-97"/>
       <use x="708.300781" xlink:href="#DejaVuSans-116"/>
       <use x="747.509766" xlink:href="#DejaVuSans-105"/>
       <use x="775.292969" xlink:href="#DejaVuSans-111"/>
       <use x="836.474609" xlink:href="#DejaVuSans-110"/>
      </g>
     </g>
    </g>
    <g id="xtick_11">
     <g id="line2d_11">
      <g>
       <use style="stroke:#000000;stroke-width:0.8;" x="255.06" xlink:href="#mb6b66fa818" y="105"/>
      </g>
     </g>
     <g id="text_11">
      <!-- energy_simulation -->
      <g transform="translate(257.680313 203.973437)rotate(-90)scale(0.1 -0.1)">
       <use xlink:href="#DejaVuSans-101"/>
       <use x="61.523438" xlink:href="#DejaVuSans-110"/>
       <use x="124.902344" xlink:href="#DejaVuSans-101"/>
       <use x="186.425781" xlink:href="#DejaVuSans-114"/>
       <use x="225.789062" xlink:href="#DejaVuSans-103"/>
       <use x="289.265625" xlink:href="#DejaVuSans-121"/>
       <use x="348.445312" xlink:href="#DejaVuSans-95"/>
       <use x="398.445312" xlink:href="#DejaVuSans-115"/>
       <use x="450.544922" xlink:href="#DejaVuSans-105"/>
       <use x="478.328125" xlink:href="#DejaVuSans-109"/>
       <use x="575.740234" xlink:href="#DejaVuSans-117"/>
       <use x="639.119141" xlink:href="#DejaVuSans-108"/>
       <use x="666.902344" xlink:href="#DejaVuSans-97"/>
       <use x="728.181641" xlink:href="#DejaVuSans-116"/>
       <use x="767.390625" xlink:href="#DejaVuSans-105"/>
       <use x="795.173828" xlink:href="#DejaVuSans-111"/>
       <use x="856.355469" xlink:href="#DejaVuSans-110"/>
      </g>
     </g>
    </g>
    <g id="xtick_12">
     <g id="line2d_12">
      <g>
       <use style="stroke:#000000;stroke-width:0.8;" x="273.18" xlink:href="#mb6b66fa818" y="105"/>
      </g>
     </g>
     <g id="text_12">
      <!-- optimization -->
      <defs>
       <path d="M 18.109375 8.203125 
L 18.109375 -20.796875 
L 9.078125 -20.796875 
L 9.078125 54.6875 
L 18.109375 54.6875 
L 18.109375 46.390625 
Q 20.953125 51.265625 25.265625 53.625 
Q 29.59375 56 35.59375 56 
Q 45.5625 56 51.78125 48.09375 
Q 58.015625 40.1875 58.015625 27.296875 
Q 58.015625 14.40625 51.78125 6.484375 
Q 45.5625 -1.421875 35.59375 -1.421875 
Q 29.59375 -1.421875 25.265625 0.953125 
Q 20.953125 3.328125 18.109375 8.203125 
z
M 48.6875 27.296875 
Q 48.6875 37.203125 44.609375 42.84375 
Q 40.53125 48.484375 33.40625 48.484375 
Q 26.265625 48.484375 22.1875 42.84375 
Q 18.109375 37.203125 18.109375 27.296875 
Q 18.109375 17.390625 22.1875 11.75 
Q 26.265625 6.109375 33.40625 6.109375 
Q 40.53125 6.109375 44.609375 11.75 
Q 48.6875 17.390625 48.6875 27.296875 
z
" id="DejaVuSans-112"/>
      </defs>
      <g transform="translate(275.939375 174.215625)rotate(-90)scale(0.1 -0.1)">
       <use xlink:href="#DejaVuSans-111"/>
       <use x="61.181641" xlink:href="#DejaVuSans-112"/>
       <use x="124.658203" xlink:href="#DejaVuSans-116"/>
       <use x="163.867188" xlink:href="#DejaVuSans-105"/>
       <use x="191.650391" xlink:href="#DejaVuSans-109"/>
       <use x="289.0625" xlink:href="#DejaVuSans-105"/>
       <use x="316.845703" xlink:href="#DejaVuSans-122"/>
       <use x="369.335938" xlink:href="#DejaVuSans-97"/>
       <use x="430.615234" xlink:href="#DejaVuSans-116"/>
       <use x="469.824219" xlink:href="#DejaVuSans-105"/>
       <use x="497.607422" xlink:href="#DejaVuSans-111"/>
       <use x="558.789062" xlink:href="#DejaVuSans-110"/>
      </g>
     </g>
    </g>
    <g id="xtick_13">
     <g id="line2d_13">
      <g>
       <use style="stroke:#000000;stroke-width:0.8;" x="291.3" xlink:href="#mb6b66fa818" y="105"/>
      </g>
     </g>
     <g id="text_13">
      <!-- multi-objective_optimization -->
      <defs>
       <path d="M 4.890625 31.390625 
L 31.203125 31.390625 
L 31.203125 23.390625 
L 4.890625 23.390625 
z
" id="DejaVuSans-45"/>
       <path d="M 48.6875 27.296875 
Q 48.6875 37.203125 44.609375 42.84375 
Q 40.53125 48.484375 33.40625 48.484375 
Q 26.265625 48.484375 22.1875 42.84375 
Q 18.109375 37.203125 18.109375 27.296875 
Q 18.109375 17.390625 22.1875 11.75 
Q 26.265625 6.109375 33.40625 6.109375 
Q 40.53125 6.109375 44.609375 11.75 
Q 48.6875 17.390625 48.6875 27.296875 
z
M 18.109375 46.390625 
Q 20.953125 51.265625 25.265625 53.625 
Q 29.59375 56 35.59375 56 
Q 45.5625 56 51.78125 48.09375 
Q 58.015625 40.1875 58.015625 27.296875 
Q 58.015625 14.40625 51.78125 6.484375 
Q 45.5625 -1.421875 35.59375 -1.421875 
Q 29.59375 -1.421875 25.265625 0.953125 
Q 20.953125 3.328125 18.109375 8.203125 
L 18.109375 0 
L 9.078125 0 
L 9.078125 75.984375 
L 18.109375 75.984375 
z
" id="DejaVuSans-98"/>
       <path d="M 9.421875 54.6875 
L 18.40625 54.6875 
L 18.40625 -0.984375 
Q 18.40625 -11.421875 14.421875 -16.109375 
Q 10.453125 -20.796875 1.609375 -20.796875 
L -1.8125 -20.796875 
L -1.8125 -13.1875 
L 0.59375 -13.1875 
Q 5.71875 -13.1875 7.5625 -10.8125 
Q 9.421875 -8.453125 9.421875 -0.984375 
z
M 9.421875 75.984375 
L 18.40625 75.984375 
L 18.40625 64.59375 
L 9.421875 64.59375 
z
" id="DejaVuSans-106"/>
      </defs>
      <g transform="translate(293.920313 254.232812)rotate(-90)scale(0.1 -0.1)">
       <use xlink:href="#DejaVuSans-109"/>
       <use x="97.412109" xlink:href="#DejaVuSans-117"/>
       <use x="160.791016" xlink:href="#DejaVuSans-108"/>
       <use x="188.574219" xlink:href="#DejaVuSans-116"/>
       <use x="227.783203" xlink:href="#DejaVuSans-105"/>
       <use x="255.566406" xlink:href="#DejaVuSans-45"/>
       <use x="293.525391" xlink:href="#DejaVuSans-111"/>
       <use x="354.707031" xlink:href="#DejaVuSans-98"/>
       <use x="418.183594" xlink:href="#DejaVuSans-106"/>
       <use x="445.966797" xlink:href="#DejaVuSans-101"/>
       <use x="507.490234" xlink:href="#DejaVuSans-99"/>
       <use x="562.470703" xlink:href="#DejaVuSans-116"/>
       <use x="601.679688" xlink:href="#DejaVuSans-105"/>
       <use x="629.462891" xlink:href="#DejaVuSans-118"/>
       <use x="688.642578" xlink:href="#DejaVuSans-101"/>
       <use x="750.166016" xlink:href="#DejaVuSans-95"/>
       <use x="800.166016" xlink:href="#DejaVuSans-111"/>
       <use x="861.347656" xlink:href="#DejaVuSans-112"/>
       <use x="924.824219" xlink:href="#DejaVuSans-116"/>
       <use x="964.033203" xlink:href="#DejaVuSans-105"/>
       <use x="991.816406" xlink:href="#DejaVuSans-109"/>
       <use x="1089.228516" xlink:href="#DejaVuSans-105"/>
       <use x="1117.011719" xlink:href="#DejaVuSans-122"/>
       <use x="1169.501953" xlink:href="#DejaVuSans-97"/>
       <use x="1230.78125" xlink:href="#DejaVuSans-116"/>
       <use x="1269.990234" xlink:href="#DejaVuSans-105"/>
       <use x="1297.773438" xlink:href="#DejaVuSans-111"/>
       <use x="1358.955078" xlink:href="#DejaVuSans-110"/>
      </g>
     </g>
    </g>
    <g id="xtick_14">
     <g id="line2d_14">
      <g>
       <use style="stroke:#000000;stroke-width:0.8;" x="309.42" xlink:href="#mb6b66fa818" y="105"/>
      </g>
     </g>
     <g id="text_14">
      <!-- measurement -->
      <g transform="translate(312.179375 181.759375)rotate(-90)scale(0.1 -0.1)">
       <use xlink:href="#DejaVuSans-109"/>
       <use x="97.412109" xlink:href="#DejaVuSans-101"/>
       <use x="158.935547" xlink:href="#DejaVuSans-97"/>
       <use x="220.214844" xlink:href="#DejaVuSans-115"/>
       <use x="272.314453" xlink:href="#DejaVuSans-117"/>
       <use x="335.693359" xlink:href="#DejaVuSans-114"/>
       <use x="374.556641" xlink:href="#DejaVuSans-101"/>
       <use x="436.080078" xlink:href="#DejaVuSans-109"/>
       <use x="533.492188" xlink:href="#DejaVuSans-101"/>
       <use x="595.015625" xlink:href="#DejaVuSans-110"/>
       <use x="658.394531" xlink:href="#DejaVuSans-116"/>
      </g>
     </g>
    </g>
    <g id="xtick_15">
     <g id="line2d_15">
      <g>
       <use style="stroke:#000000;stroke-width:0.8;" x="327.54" xlink:href="#mb6b66fa818" y="105"/>
      </g>
     </g>
     <g id="text_15">
      <!-- validation -->
      <g transform="translate(330.299375 161.234375)rotate(-90)scale(0.1 -0.1)">
       <use xlink:href="#DejaVuSans-118"/>
       <use x="59.179688" xlink:href="#DejaVuSans-97"/>
       <use x="120.458984" xlink:href="#DejaVuSans-108"/>
       <use x="148.242188" xlink:href="#DejaVuSans-105"/>
       <use x="176.025391" xlink:href="#DejaVuSans-100"/>
       <use x="239.501953" xlink:href="#DejaVuSans-97"/>
       <use x="300.78125" xlink:href="#DejaVuSans-116"/>
       <use x="339.990234" xlink:href="#DejaVuSans-105"/>
       <use x="367.773438" xlink:href="#DejaVuSans-111"/>
       <use x="428.955078" xlink:href="#DejaVuSans-110"/>
      </g>
     </g>
    </g>
    <g id="xtick_16">
     <g id="line2d_16">
      <g>
       <use style="stroke:#000000;stroke-width:0.8;" x="345.66" xlink:href="#mb6b66fa818" y="105"/>
      </g>
     </g>
     <g id="text_16">
      <!-- data_collection -->
      <g transform="translate(348.280313 187.504687)rotate(-90)scale(0.1 -0.1)">
       <use xlink:href="#DejaVuSans-100"/>
       <use x="63.476562" xlink:href="#DejaVuSans-97"/>
       <use x="124.755859" xlink:href="#DejaVuSans-116"/>
       <use x="163.964844" xlink:href="#DejaVuSans-97"/>
       <use x="225.244141" xlink:href="#DejaVuSans-95"/>
       <use x="275.244141" xlink:href="#DejaVuSans-99"/>
       <use x="330.224609" xlink:href="#DejaVuSans-111"/>
       <use x="391.40625" xlink:href="#DejaVuSans-108"/>
       <use x="419.189453" xlink:href="#DejaVuSans-108"/>
       <use x="446.972656" xlink:href="#DejaVuSans-101"/>
       <use x="508.496094" xlink:href="#DejaVuSans-99"/>
       <use x="563.476562" xlink:href="#DejaVuSans-116"/>
       <use x="602.685547" xlink:href="#DejaVuSans-105"/>
       <use x="630.46875" xlink:href="#DejaVuSans-111"/>
       <use x="691.650391" xlink:href="#DejaVuSans-110"/>
      </g>
     </g>
    </g>
    <g id="xtick_17">
     <g id="line2d_17">
      <g>
       <use style="stroke:#000000;stroke-width:0.8;" x="363.78" xlink:href="#mb6b66fa818" y="105"/>
      </g>
     </g>
     <g id="text_17">
      <!-- statistical_analysis -->
      <g transform="translate(366.400313 205.75625)rotate(-90)scale(0.1 -0.1)">
       <use xlink:href="#DejaVuSans-115"/>
       <use x="52.099609" xlink:href="#DejaVuSans-116"/>
       <use x="91.308594" xlink:href="#DejaVuSans-97"/>
       <use x="152.587891" xlink:href="#DejaVuSans-116"/>
       <use x="191.796875" xlink:href="#DejaVuSans-105"/>
       <use x="219.580078" xlink:href="#DejaVuSans-115"/>
       <use x="271.679688" xlink:href="#DejaVuSans-116"/>
       <use x="310.888672" xlink:href="#DejaVuSans-105"/>
       <use x="338.671875" xlink:href="#DejaVuSans-99"/>
       <use x="393.652344" xlink:href="#DejaVuSans-97"/>
       <use x="454.931641" xlink:href="#DejaVuSans-108"/>
       <use x="482.714844" xlink:href="#DejaVuSans-95"/>
       <use x="532.714844" xlink:href="#DejaVuSans-97"/>
       <use x="593.994141" xlink:href="#DejaVuSans-110"/>
       <use x="657.373047" xlink:href="#DejaVuSans-97"/>
       <use x="718.652344" xlink:href="#DejaVuSans-108"/>
       <use x="746.435547" xlink:href="#DejaVuSans-121"/>
       <use x="805.615234" xlink:href="#DejaVuSans-115"/>
       <use x="857.714844" xlink:href="#DejaVuSans-105"/>
       <use x="885.498047" xlink:href="#DejaVuSans-115"/>
      </g>
     </g>
    </g>
    <g id="xtick_18">
     <g id="line2d_18">
      <g>
       <use style="stroke:#000000;stroke-width:0.8;" x="381.9" xlink:href="#mb6b66fa818" y="105"/>
      </g>
     </g>
     <g id="text_18">
      <!-- factor_analysis -->
      <g transform="translate(384.520313 186.784375)rotate(-90)scale(0.1 -0.1)">
       <use xlink:href="#DejaVuSans-102"/>
       <use x="35.205078" xlink:href="#DejaVuSans-97"/>
       <use x="96.484375" xlink:href="#DejaVuSans-99"/>
       <use x="151.464844" xlink:href="#DejaVuSans-116"/>
       <use x="190.673828" xlink:href="#DejaVuSans-111"/>
       <use x="251.855469" xlink:href="#DejaVuSans-114"/>
       <use x="292.96875" xlink:href="#DejaVuSans-95"/>
       <use x="342.96875" xlink:href="#DejaVuSans-97"/>
       <use x="404.248047" xlink:href="#DejaVuSans-110"/>
       <use x="467.626953" xlink:href="#DejaVuSans-97"/>
       <use x="528.90625" xlink:href="#DejaVuSans-108"/>
       <use x="556.689453" xlink:href="#DejaVuSans-121"/>
       <use x="615.869141" xlink:href="#DejaVuSans-115"/>
       <use x="667.96875" xlink:href="#DejaVuSans-105"/>
       <use x="695.751953" xlink:href="#DejaVuSans-115"/>
      </g>
     </g>
    </g>
    <g id="xtick_19">
     <g id="line2d_19">
      <g>
       <use style="stroke:#000000;stroke-width:0.8;" x="400.02" xlink:href="#mb6b66fa818" y="105"/>
      </g>
     </g>
     <g id="text_19">
      <!-- regression -->
      <g transform="translate(402.779375 164.079688)rotate(-90)scale(0.1 -0.1)">
       <use xlink:href="#DejaVuSans-114"/>
       <use x="38.863281" xlink:href="#DejaVuSans-101"/>
       <use x="100.386719" xlink:href="#DejaVuSans-103"/>
       <use x="163.863281" xlink:href="#DejaVuSans-114"/>
       <use x="202.726562" xlink:href="#DejaVuSans-101"/>
       <use x="264.25" xlink:href="#DejaVuSans-115"/>
       <use x="316.349609" xlink:href="#DejaVuSans-115"/>
       <use x="368.449219" xlink:href="#DejaVuSans-105"/>
       <use x="396.232422" xlink:href="#DejaVuSans-111"/>
       <use x="457.414062" xlink:href="#DejaVuSans-110"/>
      </g>
     </g>
    </g>
    <g id="xtick_20">
     <g id="line2d_20">
      <g>
       <use style="stroke:#000000;stroke-width:0.8;" x="418.14" xlink:href="#mb6b66fa818" y="105"/>
      </g>
     </g>
     <g id="text_20">
      <!-- correlation -->
      <g transform="translate(420.899375 165.653125)rotate(-90)scale(0.1 -0.1)">
       <use xlink:href="#DejaVuSans-99"/>
       <use x="54.980469" xlink:href="#DejaVuSans-111"/>
       <use x="116.162109" xlink:href="#DejaVuSans-114"/>
       <use x="155.525391" xlink:href="#DejaVuSans-114"/>
       <use x="194.388672" xlink:href="#DejaVuSans-101"/>
       <use x="255.912109" xlink:href="#DejaVuSans-108"/>
       <use x="283.695312" xlink:href="#DejaVuSans-97"/>
       <use x="344.974609" xlink:href="#DejaVuSans-116"/>
       <use x="384.183594" xlink:href="#DejaVuSans-105"/>
       <use x="411.966797" xlink:href="#DejaVuSans-111"/>
       <use x="473.148438" xlink:href="#DejaVuSans-110"/>
      </g>
     </g>
    </g>
   </g>
   <g id="matplotlib.axis_2">
    <g id="ytick_1">
     <g id="line2d_21">
      <defs>
       <path d="M 0 0 
L -3.5 0 
" id="m643d652205" style="stroke:#000000;stroke-width:0.8;"/>
      </defs>
      <g>
       <use style="stroke:#000000;stroke-width:0.8;" x="64.8" xlink:href="#m643d652205" y="23.46"/>
      </g>
     </g>
     <g id="text_21">
      <!-- building_commissioning -->
      <g transform="translate(-62.248437 27.259219)scale(0.1 -0.1)">
       <use xlink:href="#DejaVuSans-98"/>
       <use x="63.476562" xlink:href="#DejaVuSans-117"/>
       <use x="126.855469" xlink:href="#DejaVuSans-105"/>
       <use x="154.638672" xlink:href="#DejaVuSans-108"/>
       <use x="182.421875" xlink:href="#DejaVuSans-100"/>
       <use x="245.898438" xlink:href="#DejaVuSans-105"/>
       <use x="273.681641" xlink:href="#DejaVuSans-110"/>
       <use x="337.060547" xlink:href="#DejaVuSans-103"/>
       <use x="400.537109" xlink:href="#DejaVuSans-95"/>
       <use x="450.537109" xlink:href="#DejaVuSans-99"/>
       <use x="505.517578" xlink:href="#DejaVuSans-111"/>
       <use x="566.699219" xlink:href="#DejaVuSans-109"/>
       <use x="664.111328" xlink:href="#DejaVuSans-109"/>
       <use x="761.523438" xlink:href="#DejaVuSans-105"/>
       <use x="789.306641" xlink:href="#DejaVuSans-115"/>
       <use x="841.40625" xlink:href="#DejaVuSans-115"/>
       <use x="893.505859" xlink:href="#DejaVuSans-105"/>
       <use x="921.289062" xlink:href="#DejaVuSans-111"/>
       <use x="982.470703" xlink:href="#DejaVuSans-110"/>
       <use x="1045.849609" xlink:href="#DejaVuSans-105"/>
       <use x="1073.632812" xlink:href="#DejaVuSans-110"/>
       <use x="1137.011719" xlink:href="#DejaVuSans-103"/>
      </g>
     </g>
    </g>
    <g id="ytick_2">
     <g id="line2d_22">
      <g>
       <use style="stroke:#000000;stroke-width:0.8;" x="64.8" xlink:href="#m643d652205" y="41.58"/>
      </g>
     </g>
     <g id="text_22">
      <!-- construction_stage -->
      <g transform="translate(-37.145312 45.379219)scale(0.1 -0.1)">
       <use xlink:href="#DejaVuSans-99"/>
       <use x="54.980469" xlink:href="#DejaVuSans-111"/>
       <use x="116.162109" xlink:href="#DejaVuSans-110"/>
       <use x="179.541016" xlink:href="#DejaVuSans-115"/>
       <use x="231.640625" xlink:href="#DejaVuSans-116"/>
       <use x="270.849609" xlink:href="#DejaVuSans-114"/>
       <use x="311.962891" xlink:href="#DejaVuSans-117"/>
       <use x="375.341797" xlink:href="#DejaVuSans-99"/>
       <use x="430.322266" xlink:href="#DejaVuSans-116"/>
       <use x="469.53125" xlink:href="#DejaVuSans-105"/>
       <use x="497.314453" xlink:href="#DejaVuSans-111"/>
       <use x="558.496094" xlink:href="#DejaVuSans-110"/>
       <use x="621.875" xlink:href="#DejaVuSans-95"/>
       <use x="671.875" xlink:href="#DejaVuSans-115"/>
       <use x="723.974609" xlink:href="#DejaVuSans-116"/>
       <use x="763.183594" xlink:href="#DejaVuSans-97"/>
       <use x="824.462891" xlink:href="#DejaVuSans-103"/>
       <use x="887.939453" xlink:href="#DejaVuSans-101"/>
      </g>
     </g>
    </g>
    <g id="ytick_3">
     <g id="line2d_23">
      <g>
       <use style="stroke:#000000;stroke-width:0.8;" x="64.8" xlink:href="#m643d652205" y="59.7"/>
      </g>
     </g>
     <g id="text_23">
      <!-- operation_and_maintenance -->
      <g transform="translate(-84.540625 63.499219)scale(0.1 -0.1)">
       <use xlink:href="#DejaVuSans-111"/>
       <use x="61.181641" xlink:href="#DejaVuSans-112"/>
       <use x="124.658203" xlink:href="#DejaVuSans-101"/>
       <use x="186.181641" xlink:href="#DejaVuSans-114"/>
       <use x="227.294922" xlink:href="#DejaVuSans-97"/>
       <use x="288.574219" xlink:href="#DejaVuSans-116"/>
       <use x="327.783203" xlink:href="#DejaVuSans-105"/>
       <use x="355.566406" xlink:href="#DejaVuSans-111"/>
       <use x="416.748047" xlink:href="#DejaVuSans-110"/>
       <use x="480.126953" xlink:href="#DejaVuSans-95"/>
       <use x="530.126953" xlink:href="#DejaVuSans-97"/>
       <use x="591.40625" xlink:href="#DejaVuSans-110"/>
       <use x="654.785156" xlink:href="#DejaVuSans-100"/>
       <use x="718.261719" xlink:href="#DejaVuSans-95"/>
       <use x="768.261719" xlink:href="#DejaVuSans-109"/>
       <use x="865.673828" xlink:href="#DejaVuSans-97"/>
       <use x="926.953125" xlink:href="#DejaVuSans-105"/>
       <use x="954.736328" xlink:href="#DejaVuSans-110"/>
       <use x="1018.115234" xlink:href="#DejaVuSans-116"/>
       <use x="1057.324219" xlink:href="#DejaVuSans-101"/>
       <use x="1118.847656" xlink:href="#DejaVuSans-110"/>
       <use x="1182.226562" xlink:href="#DejaVuSans-97"/>
       <use x="1243.505859" xlink:href="#DejaVuSans-110"/>
       <use x="1306.884766" xlink:href="#DejaVuSans-99"/>
       <use x="1361.865234" xlink:href="#DejaVuSans-101"/>
      </g>
     </g>
    </g>
    <g id="ytick_4">
     <g id="line2d_24">
      <g>
       <use style="stroke:#000000;stroke-width:0.8;" x="64.8" xlink:href="#m643d652205" y="77.82"/>
      </g>
     </g>
     <g id="text_24">
      <!-- design-stage -->
      <g transform="translate(-6.742187 81.619219)scale(0.1 -0.1)">
       <use xlink:href="#DejaVuSans-100"/>
       <use x="63.476562" xlink:href="#DejaVuSans-101"/>
       <use x="125" xlink:href="#DejaVuSans-115"/>
       <use x="177.099609" xlink:href="#DejaVuSans-105"/>
       <use x="204.882812" xlink:href="#DejaVuSans-103"/>
       <use x="268.359375" xlink:href="#DejaVuSans-110"/>
       <use x="331.738281" xlink:href="#DejaVuSans-45"/>
       <use x="367.822266" xlink:href="#DejaVuSans-115"/>
       <use x="419.921875" xlink:href="#DejaVuSans-116"/>
       <use x="459.130859" xlink:href="#DejaVuSans-97"/>
       <use x="520.410156" xlink:href="#DejaVuSans-103"/>
       <use x="583.886719" xlink:href="#DejaVuSans-101"/>
      </g>
     </g>
    </g>
    <g id="ytick_5">
     <g id="line2d_25">
      <g>
       <use style="stroke:#000000;stroke-width:0.8;" x="64.8" xlink:href="#m643d652205" y="95.94"/>
      </g>
     </g>
     <g id="text_25">
      <!-- building_retrofit -->
      <g transform="translate(-21.4375 99.739219)scale(0.1 -0.1)">
       <use xlink:href="#DejaVuSans-98"/>
       <use x="63.476562" xlink:href="#DejaVuSans-117"/>
       <use x="126.855469" xlink:href="#DejaVuSans-105"/>
       <use x="154.638672" xlink:href="#DejaVuSans-108"/>
       <use x="182.421875" xlink:href="#DejaVuSans-100"/>
       <use x="245.898438" xlink:href="#DejaVuSans-105"/>
       <use x="273.681641" xlink:href="#DejaVuSans-110"/>
       <use x="337.060547" xlink:href="#DejaVuSans-103"/>
       <use x="400.537109" xlink:href="#DejaVuSans-95"/>
       <use x="450.537109" xlink:href="#DejaVuSans-114"/>
       <use x="489.400391" xlink:href="#DejaVuSans-101"/>
       <use x="550.923828" xlink:href="#DejaVuSans-116"/>
       <use x="590.132812" xlink:href="#DejaVuSans-114"/>
       <use x="628.996094" xlink:href="#DejaVuSans-111"/>
       <use x="690.177734" xlink:href="#DejaVuSans-102"/>
       <use x="725.382812" xlink:href="#DejaVuSans-105"/>
       <use x="753.166016" xlink:href="#DejaVuSans-116"/>
      </g>
     </g>
    </g>
    <g id="text_26">
     <!-- index -->
     <g transform="translate(-90.620313 73.380469)rotate(-90)scale(0.1 -0.1)">
      <use xlink:href="#DejaVuSans-105"/>
      <use x="27.783203" xlink:href="#DejaVuSans-110"/>
      <use x="91.162109" xlink:href="#DejaVuSans-100"/>
      <use x="154.638672" xlink:href="#DejaVuSans-101"/>
      <use x="214.412109" xlink:href="#DejaVuSans-120"/>
     </g>
    </g>
   </g>
   <g id="text_27">
    <!-- phase&lt; - - &gt;data_science -->
    <defs>
     <path d="M 54.890625 33.015625 
L 54.890625 0 
L 45.90625 0 
L 45.90625 32.71875 
Q 45.90625 40.484375 42.875 44.328125 
Q 39.84375 48.1875 33.796875 48.1875 
Q 26.515625 48.1875 22.3125 43.546875 
Q 18.109375 38.921875 18.109375 30.90625 
L 18.109375 0 
L 9.078125 0 
L 9.078125 75.984375 
L 18.109375 75.984375 
L 18.109375 46.1875 
Q 21.34375 51.125 25.703125 53.5625 
Q 30.078125 56 35.796875 56 
Q 45.21875 56 50.046875 50.171875 
Q 54.890625 44.34375 54.890625 33.015625 
z
" id="DejaVuSans-104"/>
     <path d="M 73.1875 49.21875 
L 22.796875 31.296875 
L 73.1875 13.484375 
L 73.1875 4.59375 
L 10.59375 27.296875 
L 10.59375 35.40625 
L 73.1875 58.109375 
z
" id="DejaVuSans-60"/>
     <path id="DejaVuSans-32"/>
     <path d="M 10.59375 49.21875 
L 10.59375 58.109375 
L 73.1875 35.40625 
L 73.1875 27.296875 
L 10.59375 4.59375 
L 10.59375 13.484375 
L 60.890625 31.296875 
z
" id="DejaVuSans-62"/>
    </defs>
    <g transform="translate(170.603437 8.4)scale(0.12 -0.12)">
     <use xlink:href="#DejaVuSans-112"/>
     <use x="63.476562" xlink:href="#DejaVuSans-104"/>
     <use x="126.855469" xlink:href="#DejaVuSans-97"/>
     <use x="188.134766" xlink:href="#DejaVuSans-115"/>
     <use x="240.234375" xlink:href="#DejaVuSans-101"/>
     <use x="301.757812" xlink:href="#DejaVuSans-60"/>
     <use x="385.546875" xlink:href="#DejaVuSans-32"/>
     <use x="417.333984" xlink:href="#DejaVuSans-45"/>
     <use x="453.417969" xlink:href="#DejaVuSans-45"/>
     <use x="489.501953" xlink:href="#DejaVuSans-32"/>
     <use x="521.289062" xlink:href="#DejaVuSans-62"/>
     <use x="605.078125" xlink:href="#DejaVuSans-100"/>
     <use x="668.554688" xlink:href="#DejaVuSans-97"/>
     <use x="729.833984" xlink:href="#DejaVuSans-116"/>
     <use x="769.042969" xlink:href="#DejaVuSans-97"/>
     <use x="830.322266" xlink:href="#DejaVuSans-95"/>
     <use x="880.322266" xlink:href="#DejaVuSans-115"/>
     <use x="932.421875" xlink:href="#DejaVuSans-99"/>
     <use x="987.402344" xlink:href="#DejaVuSans-105"/>
     <use x="1015.185547" xlink:href="#DejaVuSans-101"/>
     <use x="1076.708984" xlink:href="#DejaVuSans-110"/>
     <use x="1140.087891" xlink:href="#DejaVuSans-99"/>
     <use x="1195.068359" xlink:href="#DejaVuSans-101"/>
    </g>
   </g>
  </g>
 </g>
 <defs>
  <clipPath id="p457d0444fb">
   <rect height="90.6" width="362.4" x="64.8" y="14.4"/>
  </clipPath>
 </defs>
</svg>
