<?xml version="1.0" encoding="utf-8" standalone="no"?>
<!DOCTYPE svg PUBLIC "-//W3C//DTD SVG 1.1//EN"
  "http://www.w3.org/Graphics/SVG/1.1/DTD/svg11.dtd">
<!-- Created with matplotlib (https://matplotlib.org/) -->
<svg height="102.857143pt" version="1.1" viewBox="0 0 120 102.857143" width="120pt" xmlns="http://www.w3.org/2000/svg" xmlns:xlink="http://www.w3.org/1999/xlink">
 <defs>
  <style type="text/css">
*{stroke-linecap:butt;stroke-linejoin:round;}
  </style>
 </defs>
 <g id="figure_1">
  <g id="patch_1">
   <path d="M 0 102.857143 
L 120 102.857143 
L 120 0 
L 0 0 
z
" style="fill:#ffffff;"/>
  </g>
  <g id="axes_1">
   <g id="patch_2">
    <path d="M 22.671429 90 
L 100.328571 90 
L 100.328571 12.342857 
L 22.671429 12.342857 
z
" style="fill:#ffffff;"/>
   </g>
   <g id="QuadMesh_1">
    <path clip-path="url(#p0ef9cead62)" d="M 22.671429 12.342857 
L 38.202857 12.342857 
L 38.202857 27.874286 
L 22.671429 27.874286 
L 22.671429 12.342857 
" style="fill:#08306b;stroke:#ffffff;stroke-width:0.5;"/>
    <path clip-path="url(#p0ef9cead62)" d="M 38.202857 12.342857 
L 53.734286 12.342857 
L 53.734286 27.874286 
L 38.202857 27.874286 
L 38.202857 12.342857 
" style="fill:#d6e6f4;stroke:#ffffff;stroke-width:0.5;"/>
    <path clip-path="url(#p0ef9cead62)" d="M 53.734286 12.342857 
L 69.265714 12.342857 
L 69.265714 27.874286 
L 53.734286 27.874286 
L 53.734286 12.342857 
" style="fill:#2777b8;stroke:#ffffff;stroke-width:0.5;"/>
    <path clip-path="url(#p0ef9cead62)" d="M 69.265714 12.342857 
L 84.797143 12.342857 
L 84.797143 27.874286 
L 69.265714 27.874286 
L 69.265714 12.342857 
" style="fill:#eaf3fb;stroke:#ffffff;stroke-width:0.5;"/>
    <path clip-path="url(#p0ef9cead62)" d="M 84.797143 12.342857 
L 100.328571 12.342857 
L 100.328571 27.874286 
L 84.797143 27.874286 
L 84.797143 12.342857 
" style="fill:#ccdff1;stroke:#ffffff;stroke-width:0.5;"/>
    <path clip-path="url(#p0ef9cead62)" d="M 22.671429 27.874286 
L 38.202857 27.874286 
L 38.202857 43.405714 
L 22.671429 43.405714 
L 22.671429 27.874286 
" style="fill:#d6e6f4;stroke:#ffffff;stroke-width:0.5;"/>
    <path clip-path="url(#p0ef9cead62)" d="M 38.202857 27.874286 
L 53.734286 27.874286 
L 53.734286 43.405714 
L 38.202857 43.405714 
L 38.202857 27.874286 
" style="fill:#08306b;stroke:#ffffff;stroke-width:0.5;"/>
    <path clip-path="url(#p0ef9cead62)" d="M 53.734286 27.874286 
L 69.265714 27.874286 
L 69.265714 43.405714 
L 53.734286 43.405714 
L 53.734286 27.874286 
" style="fill:#4d99ca;stroke:#ffffff;stroke-width:0.5;"/>
    <path clip-path="url(#p0ef9cead62)" d="M 69.265714 27.874286 
L 84.797143 27.874286 
L 84.797143 43.405714 
L 69.265714 43.405714 
L 69.265714 27.874286 
" style="fill:#4896c8;stroke:#ffffff;stroke-width:0.5;"/>
    <path clip-path="url(#p0ef9cead62)" d="M 84.797143 27.874286 
L 100.328571 27.874286 
L 100.328571 43.405714 
L 84.797143 43.405714 
L 84.797143 27.874286 
" style="fill:#65aad4;stroke:#ffffff;stroke-width:0.5;"/>
    <path clip-path="url(#p0ef9cead62)" d="M 22.671429 43.405714 
L 38.202857 43.405714 
L 38.202857 58.937143 
L 22.671429 58.937143 
L 22.671429 43.405714 
" style="fill:#2777b8;stroke:#ffffff;stroke-width:0.5;"/>
    <path clip-path="url(#p0ef9cead62)" d="M 38.202857 43.405714 
L 53.734286 43.405714 
L 53.734286 58.937143 
L 38.202857 58.937143 
L 38.202857 43.405714 
" style="fill:#4d99ca;stroke:#ffffff;stroke-width:0.5;"/>
    <path clip-path="url(#p0ef9cead62)" d="M 53.734286 43.405714 
L 69.265714 43.405714 
L 69.265714 58.937143 
L 53.734286 58.937143 
L 53.734286 43.405714 
" style="fill:#08306b;stroke:#ffffff;stroke-width:0.5;"/>
    <path clip-path="url(#p0ef9cead62)" d="M 69.265714 43.405714 
L 84.797143 43.405714 
L 84.797143 58.937143 
L 69.265714 58.937143 
L 69.265714 43.405714 
" style="fill:#5da5d1;stroke:#ffffff;stroke-width:0.5;"/>
    <path clip-path="url(#p0ef9cead62)" d="M 84.797143 43.405714 
L 100.328571 43.405714 
L 100.328571 58.937143 
L 84.797143 58.937143 
L 84.797143 43.405714 
" style="fill:#3888c1;stroke:#ffffff;stroke-width:0.5;"/>
    <path clip-path="url(#p0ef9cead62)" d="M 22.671429 58.937143 
L 38.202857 58.937143 
L 38.202857 74.468571 
L 22.671429 74.468571 
L 22.671429 58.937143 
" style="fill:#eaf3fb;stroke:#ffffff;stroke-width:0.5;"/>
    <path clip-path="url(#p0ef9cead62)" d="M 38.202857 58.937143 
L 53.734286 58.937143 
L 53.734286 74.468571 
L 38.202857 74.468571 
L 38.202857 58.937143 
" style="fill:#4896c8;stroke:#ffffff;stroke-width:0.5;"/>
    <path clip-path="url(#p0ef9cead62)" d="M 53.734286 58.937143 
L 69.265714 58.937143 
L 69.265714 74.468571 
L 53.734286 74.468571 
L 53.734286 58.937143 
" style="fill:#5da5d1;stroke:#ffffff;stroke-width:0.5;"/>
    <path clip-path="url(#p0ef9cead62)" d="M 69.265714 58.937143 
L 84.797143 58.937143 
L 84.797143 74.468571 
L 69.265714 74.468571 
L 69.265714 58.937143 
" style="fill:#08306b;stroke:#ffffff;stroke-width:0.5;"/>
    <path clip-path="url(#p0ef9cead62)" d="M 84.797143 58.937143 
L 100.328571 58.937143 
L 100.328571 74.468571 
L 84.797143 74.468571 
L 84.797143 58.937143 
" style="fill:#1966ad;stroke:#ffffff;stroke-width:0.5;"/>
    <path clip-path="url(#p0ef9cead62)" d="M 22.671429 74.468571 
L 38.202857 74.468571 
L 38.202857 90 
L 22.671429 90 
L 22.671429 74.468571 
" style="fill:#ccdff1;stroke:#ffffff;stroke-width:0.5;"/>
    <path clip-path="url(#p0ef9cead62)" d="M 38.202857 74.468571 
L 53.734286 74.468571 
L 53.734286 90 
L 38.202857 90 
L 38.202857 74.468571 
" style="fill:#65aad4;stroke:#ffffff;stroke-width:0.5;"/>
    <path clip-path="url(#p0ef9cead62)" d="M 53.734286 74.468571 
L 69.265714 74.468571 
L 69.265714 90 
L 53.734286 90 
L 53.734286 74.468571 
" style="fill:#3888c1;stroke:#ffffff;stroke-width:0.5;"/>
    <path clip-path="url(#p0ef9cead62)" d="M 69.265714 74.468571 
L 84.797143 74.468571 
L 84.797143 90 
L 69.265714 90 
L 69.265714 74.468571 
" style="fill:#1966ad;stroke:#ffffff;stroke-width:0.5;"/>
    <path clip-path="url(#p0ef9cead62)" d="M 84.797143 74.468571 
L 100.328571 74.468571 
L 100.328571 90 
L 84.797143 90 
L 84.797143 74.468571 
" style="fill:#08306b;stroke:#ffffff;stroke-width:0.5;"/>
   </g>
   <g id="matplotlib.axis_1">
    <g id="xtick_1">
     <g id="line2d_1">
      <defs>
       <path d="M 0 0 
L 0 3.5 
" id="m76674328df" style="stroke:#000000;stroke-width:0.8;"/>
      </defs>
      <g>
       <use style="stroke:#000000;stroke-width:0.8;" x="30.437143" xlink:href="#m76674328df" y="90"/>
      </g>
     </g>
     <g id="text_1">
      <!-- building_commissioning -->
      <defs>
       <path d="M 48.6875 27.296875 
Q 48.6875 37.203125 44.609375 42.84375 
Q 40.53125 48.484375 33.40625 48.484375 
Q 26.265625 48.484375 22.1875 42.84375 
Q 18.109375 37.203125 18.109375 27.296875 
Q 18.109375 17.390625 22.1875 11.75 
Q 26.265625 6.109375 33.40625 6.109375 
Q 40.53125 6.109375 44.609375 11.75 
Q 48.6875 17.390625 48.6875 27.296875 
z
M 18.109375 46.390625 
Q 20.953125 51.265625 25.265625 53.625 
Q 29.59375 56 35.59375 56 
Q 45.5625 56 51.78125 48.09375 
Q 58.015625 40.1875 58.015625 27.296875 
Q 58.015625 14.40625 51.78125 6.484375 
Q 45.5625 -1.421875 35.59375 -1.421875 
Q 29.59375 -1.421875 25.265625 0.953125 
Q 20.953125 3.328125 18.109375 8.203125 
L 18.109375 0 
L 9.078125 0 
L 9.078125 75.984375 
L 18.109375 75.984375 
z
" id="DejaVuSans-98"/>
       <path d="M 8.5 21.578125 
L 8.5 54.6875 
L 17.484375 54.6875 
L 17.484375 21.921875 
Q 17.484375 14.15625 20.5 10.265625 
Q 23.53125 6.390625 29.59375 6.390625 
Q 36.859375 6.390625 41.078125 11.03125 
Q 45.3125 15.671875 45.3125 23.6875 
L 45.3125 54.6875 
L 54.296875 54.6875 
L 54.296875 0 
L 45.3125 0 
L 45.3125 8.40625 
Q 42.046875 3.421875 37.71875 1 
Q 33.40625 -1.421875 27.6875 -1.421875 
Q 18.265625 -1.421875 13.375 4.4375 
Q 8.5 10.296875 8.5 21.578125 
z
M 31.109375 56 
z
" id="DejaVuSans-117"/>
       <path d="M 9.421875 54.6875 
L 18.40625 54.6875 
L 18.40625 0 
L 9.421875 0 
z
M 9.421875 75.984375 
L 18.40625 75.984375 
L 18.40625 64.59375 
L 9.421875 64.59375 
z
" id="DejaVuSans-105"/>
       <path d="M 9.421875 75.984375 
L 18.40625 75.984375 
L 18.40625 0 
L 9.421875 0 
z
" id="DejaVuSans-108"/>
       <path d="M 45.40625 46.390625 
L 45.40625 75.984375 
L 54.390625 75.984375 
L 54.390625 0 
L 45.40625 0 
L 45.40625 8.203125 
Q 42.578125 3.328125 38.25 0.953125 
Q 33.9375 -1.421875 27.875 -1.421875 
Q 17.96875 -1.421875 11.734375 6.484375 
Q 5.515625 14.40625 5.515625 27.296875 
Q 5.515625 40.1875 11.734375 48.09375 
Q 17.96875 56 27.875 56 
Q 33.9375 56 38.25 53.625 
Q 42.578125 51.265625 45.40625 46.390625 
z
M 14.796875 27.296875 
Q 14.796875 17.390625 18.875 11.75 
Q 22.953125 6.109375 30.078125 6.109375 
Q 37.203125 6.109375 41.296875 11.75 
Q 45.40625 17.390625 45.40625 27.296875 
Q 45.40625 37.203125 41.296875 42.84375 
Q 37.203125 48.484375 30.078125 48.484375 
Q 22.953125 48.484375 18.875 42.84375 
Q 14.796875 37.203125 14.796875 27.296875 
z
" id="DejaVuSans-100"/>
       <path d="M 54.890625 33.015625 
L 54.890625 0 
L 45.90625 0 
L 45.90625 32.71875 
Q 45.90625 40.484375 42.875 44.328125 
Q 39.84375 48.1875 33.796875 48.1875 
Q 26.515625 48.1875 22.3125 43.546875 
Q 18.109375 38.921875 18.109375 30.90625 
L 18.109375 0 
L 9.078125 0 
L 9.078125 54.6875 
L 18.109375 54.6875 
L 18.109375 46.1875 
Q 21.34375 51.125 25.703125 53.5625 
Q 30.078125 56 35.796875 56 
Q 45.21875 56 50.046875 50.171875 
Q 54.890625 44.34375 54.890625 33.015625 
z
" id="DejaVuSans-110"/>
       <path d="M 45.40625 27.984375 
Q 45.40625 37.75 41.375 43.109375 
Q 37.359375 48.484375 30.078125 48.484375 
Q 22.859375 48.484375 18.828125 43.109375 
Q 14.796875 37.75 14.796875 27.984375 
Q 14.796875 18.265625 18.828125 12.890625 
Q 22.859375 7.515625 30.078125 7.515625 
Q 37.359375 7.515625 41.375 12.890625 
Q 45.40625 18.265625 45.40625 27.984375 
z
M 54.390625 6.78125 
Q 54.390625 -7.171875 48.1875 -13.984375 
Q 42 -20.796875 29.203125 -20.796875 
Q 24.46875 -20.796875 20.265625 -20.09375 
Q 16.0625 -19.390625 12.109375 -17.921875 
L 12.109375 -9.1875 
Q 16.0625 -11.328125 19.921875 -12.34375 
Q 23.78125 -13.375 27.78125 -13.375 
Q 36.625 -13.375 41.015625 -8.765625 
Q 45.40625 -4.15625 45.40625 5.171875 
L 45.40625 9.625 
Q 42.625 4.78125 38.28125 2.390625 
Q 33.9375 0 27.875 0 
Q 17.828125 0 11.671875 7.65625 
Q 5.515625 15.328125 5.515625 27.984375 
Q 5.515625 40.671875 11.671875 48.328125 
Q 17.828125 56 27.875 56 
Q 33.9375 56 38.28125 53.609375 
Q 42.625 51.21875 45.40625 46.390625 
L 45.40625 54.6875 
L 54.390625 54.6875 
z
" id="DejaVuSans-103"/>
       <path d="M 50.984375 -16.609375 
L 50.984375 -23.578125 
L -0.984375 -23.578125 
L -0.984375 -16.609375 
z
" id="DejaVuSans-95"/>
       <path d="M 48.78125 52.59375 
L 48.78125 44.1875 
Q 44.96875 46.296875 41.140625 47.34375 
Q 37.3125 48.390625 33.40625 48.390625 
Q 24.65625 48.390625 19.8125 42.84375 
Q 14.984375 37.3125 14.984375 27.296875 
Q 14.984375 17.28125 19.8125 11.734375 
Q 24.65625 6.203125 33.40625 6.203125 
Q 37.3125 6.203125 41.140625 7.25 
Q 44.96875 8.296875 48.78125 10.40625 
L 48.78125 2.09375 
Q 45.015625 0.34375 40.984375 -0.53125 
Q 36.96875 -1.421875 32.421875 -1.421875 
Q 20.0625 -1.421875 12.78125 6.34375 
Q 5.515625 14.109375 5.515625 27.296875 
Q 5.515625 40.671875 12.859375 48.328125 
Q 20.21875 56 33.015625 56 
Q 37.15625 56 41.109375 55.140625 
Q 45.0625 54.296875 48.78125 52.59375 
z
" id="DejaVuSans-99"/>
       <path d="M 30.609375 48.390625 
Q 23.390625 48.390625 19.1875 42.75 
Q 14.984375 37.109375 14.984375 27.296875 
Q 14.984375 17.484375 19.15625 11.84375 
Q 23.34375 6.203125 30.609375 6.203125 
Q 37.796875 6.203125 41.984375 11.859375 
Q 46.1875 17.53125 46.1875 27.296875 
Q 46.1875 37.015625 41.984375 42.703125 
Q 37.796875 48.390625 30.609375 48.390625 
z
M 30.609375 56 
Q 42.328125 56 49.015625 48.375 
Q 55.71875 40.765625 55.71875 27.296875 
Q 55.71875 13.875 49.015625 6.21875 
Q 42.328125 -1.421875 30.609375 -1.421875 
Q 18.84375 -1.421875 12.171875 6.21875 
Q 5.515625 13.875 5.515625 27.296875 
Q 5.515625 40.765625 12.171875 48.375 
Q 18.84375 56 30.609375 56 
z
" id="DejaVuSans-111"/>
       <path d="M 52 44.1875 
Q 55.375 50.25 60.0625 53.125 
Q 64.75 56 71.09375 56 
Q 79.640625 56 84.28125 50.015625 
Q 88.921875 44.046875 88.921875 33.015625 
L 88.921875 0 
L 79.890625 0 
L 79.890625 32.71875 
Q 79.890625 40.578125 77.09375 44.375 
Q 74.3125 48.1875 68.609375 48.1875 
Q 61.625 48.1875 57.5625 43.546875 
Q 53.515625 38.921875 53.515625 30.90625 
L 53.515625 0 
L 44.484375 0 
L 44.484375 32.71875 
Q 44.484375 40.625 41.703125 44.40625 
Q 38.921875 48.1875 33.109375 48.1875 
Q 26.21875 48.1875 22.15625 43.53125 
Q 18.109375 38.875 18.109375 30.90625 
L 18.109375 0 
L 9.078125 0 
L 9.078125 54.6875 
L 18.109375 54.6875 
L 18.109375 46.1875 
Q 21.1875 51.21875 25.484375 53.609375 
Q 29.78125 56 35.6875 56 
Q 41.65625 56 45.828125 52.96875 
Q 50 49.953125 52 44.1875 
z
" id="DejaVuSans-109"/>
       <path d="M 44.28125 53.078125 
L 44.28125 44.578125 
Q 40.484375 46.53125 36.375 47.5 
Q 32.28125 48.484375 27.875 48.484375 
Q 21.1875 48.484375 17.84375 46.4375 
Q 14.5 44.390625 14.5 40.28125 
Q 14.5 37.15625 16.890625 35.375 
Q 19.28125 33.59375 26.515625 31.984375 
L 29.59375 31.296875 
Q 39.15625 29.25 43.1875 25.515625 
Q 47.21875 21.78125 47.21875 15.09375 
Q 47.21875 7.46875 41.1875 3.015625 
Q 35.15625 -1.421875 24.609375 -1.421875 
Q 20.21875 -1.421875 15.453125 -0.5625 
Q 10.6875 0.296875 5.421875 2 
L 5.421875 11.28125 
Q 10.40625 8.6875 15.234375 7.390625 
Q 20.0625 6.109375 24.8125 6.109375 
Q 31.15625 6.109375 34.5625 8.28125 
Q 37.984375 10.453125 37.984375 14.40625 
Q 37.984375 18.0625 35.515625 20.015625 
Q 33.0625 21.96875 24.703125 23.78125 
L 21.578125 24.515625 
Q 13.234375 26.265625 9.515625 29.90625 
Q 5.8125 33.546875 5.8125 39.890625 
Q 5.8125 47.609375 11.28125 51.796875 
Q 16.75 56 26.8125 56 
Q 31.78125 56 36.171875 55.265625 
Q 40.578125 54.546875 44.28125 53.078125 
z
" id="DejaVuSans-115"/>
      </defs>
      <g transform="translate(33.057455 217.048438)rotate(-90)scale(0.1 -0.1)">
       <use xlink:href="#DejaVuSans-98"/>
       <use x="63.476562" xlink:href="#DejaVuSans-117"/>
       <use x="126.855469" xlink:href="#DejaVuSans-105"/>
       <use x="154.638672" xlink:href="#DejaVuSans-108"/>
       <use x="182.421875" xlink:href="#DejaVuSans-100"/>
       <use x="245.898438" xlink:href="#DejaVuSans-105"/>
       <use x="273.681641" xlink:href="#DejaVuSans-110"/>
       <use x="337.060547" xlink:href="#DejaVuSans-103"/>
       <use x="400.537109" xlink:href="#DejaVuSans-95"/>
       <use x="450.537109" xlink:href="#DejaVuSans-99"/>
       <use x="505.517578" xlink:href="#DejaVuSans-111"/>
       <use x="566.699219" xlink:href="#DejaVuSans-109"/>
       <use x="664.111328" xlink:href="#DejaVuSans-109"/>
       <use x="761.523438" xlink:href="#DejaVuSans-105"/>
       <use x="789.306641" xlink:href="#DejaVuSans-115"/>
       <use x="841.40625" xlink:href="#DejaVuSans-115"/>
       <use x="893.505859" xlink:href="#DejaVuSans-105"/>
       <use x="921.289062" xlink:href="#DejaVuSans-111"/>
       <use x="982.470703" xlink:href="#DejaVuSans-110"/>
       <use x="1045.849609" xlink:href="#DejaVuSans-105"/>
       <use x="1073.632812" xlink:href="#DejaVuSans-110"/>
       <use x="1137.011719" xlink:href="#DejaVuSans-103"/>
      </g>
     </g>
    </g>
    <g id="xtick_2">
     <g id="line2d_2">
      <g>
       <use style="stroke:#000000;stroke-width:0.8;" x="45.968571" xlink:href="#m76674328df" y="90"/>
      </g>
     </g>
     <g id="text_2">
      <!-- construction_stage -->
      <defs>
       <path d="M 18.3125 70.21875 
L 18.3125 54.6875 
L 36.8125 54.6875 
L 36.8125 47.703125 
L 18.3125 47.703125 
L 18.3125 18.015625 
Q 18.3125 11.328125 20.140625 9.421875 
Q 21.96875 7.515625 27.59375 7.515625 
L 36.8125 7.515625 
L 36.8125 0 
L 27.59375 0 
Q 17.1875 0 13.234375 3.875 
Q 9.28125 7.765625 9.28125 18.015625 
L 9.28125 47.703125 
L 2.6875 47.703125 
L 2.6875 54.6875 
L 9.28125 54.6875 
L 9.28125 70.21875 
z
" id="DejaVuSans-116"/>
       <path d="M 41.109375 46.296875 
Q 39.59375 47.171875 37.8125 47.578125 
Q 36.03125 48 33.890625 48 
Q 26.265625 48 22.1875 43.046875 
Q 18.109375 38.09375 18.109375 28.8125 
L 18.109375 0 
L 9.078125 0 
L 9.078125 54.6875 
L 18.109375 54.6875 
L 18.109375 46.1875 
Q 20.953125 51.171875 25.484375 53.578125 
Q 30.03125 56 36.53125 56 
Q 37.453125 56 38.578125 55.875 
Q 39.703125 55.765625 41.0625 55.515625 
z
" id="DejaVuSans-114"/>
       <path d="M 34.28125 27.484375 
Q 23.390625 27.484375 19.1875 25 
Q 14.984375 22.515625 14.984375 16.5 
Q 14.984375 11.71875 18.140625 8.90625 
Q 21.296875 6.109375 26.703125 6.109375 
Q 34.1875 6.109375 38.703125 11.40625 
Q 43.21875 16.703125 43.21875 25.484375 
L 43.21875 27.484375 
z
M 52.203125 31.203125 
L 52.203125 0 
L 43.21875 0 
L 43.21875 8.296875 
Q 40.140625 3.328125 35.546875 0.953125 
Q 30.953125 -1.421875 24.3125 -1.421875 
Q 15.921875 -1.421875 10.953125 3.296875 
Q 6 8.015625 6 15.921875 
Q 6 25.140625 12.171875 29.828125 
Q 18.359375 34.515625 30.609375 34.515625 
L 43.21875 34.515625 
L 43.21875 35.40625 
Q 43.21875 41.609375 39.140625 45 
Q 35.0625 48.390625 27.6875 48.390625 
Q 23 48.390625 18.546875 47.265625 
Q 14.109375 46.140625 10.015625 43.890625 
L 10.015625 52.203125 
Q 14.9375 54.109375 19.578125 55.046875 
Q 24.21875 56 28.609375 56 
Q 40.484375 56 46.34375 49.84375 
Q 52.203125 43.703125 52.203125 31.203125 
z
" id="DejaVuSans-97"/>
       <path d="M 56.203125 29.59375 
L 56.203125 25.203125 
L 14.890625 25.203125 
Q 15.484375 15.921875 20.484375 11.0625 
Q 25.484375 6.203125 34.421875 6.203125 
Q 39.59375 6.203125 44.453125 7.46875 
Q 49.3125 8.734375 54.109375 11.28125 
L 54.109375 2.78125 
Q 49.265625 0.734375 44.1875 -0.34375 
Q 39.109375 -1.421875 33.890625 -1.421875 
Q 20.796875 -1.421875 13.15625 6.1875 
Q 5.515625 13.8125 5.515625 26.8125 
Q 5.515625 40.234375 12.765625 48.109375 
Q 20.015625 56 32.328125 56 
Q 43.359375 56 49.78125 48.890625 
Q 56.203125 41.796875 56.203125 29.59375 
z
M 47.21875 32.234375 
Q 47.125 39.59375 43.09375 43.984375 
Q 39.0625 48.390625 32.421875 48.390625 
Q 24.90625 48.390625 20.390625 44.140625 
Q 15.875 39.890625 15.1875 32.171875 
z
" id="DejaVuSans-101"/>
      </defs>
      <g transform="translate(48.588884 191.945312)rotate(-90)scale(0.1 -0.1)">
       <use xlink:href="#DejaVuSans-99"/>
       <use x="54.980469" xlink:href="#DejaVuSans-111"/>
       <use x="116.162109" xlink:href="#DejaVuSans-110"/>
       <use x="179.541016" xlink:href="#DejaVuSans-115"/>
       <use x="231.640625" xlink:href="#DejaVuSans-116"/>
       <use x="270.849609" xlink:href="#DejaVuSans-114"/>
       <use x="311.962891" xlink:href="#DejaVuSans-117"/>
       <use x="375.341797" xlink:href="#DejaVuSans-99"/>
       <use x="430.322266" xlink:href="#DejaVuSans-116"/>
       <use x="469.53125" xlink:href="#DejaVuSans-105"/>
       <use x="497.314453" xlink:href="#DejaVuSans-111"/>
       <use x="558.496094" xlink:href="#DejaVuSans-110"/>
       <use x="621.875" xlink:href="#DejaVuSans-95"/>
       <use x="671.875" xlink:href="#DejaVuSans-115"/>
       <use x="723.974609" xlink:href="#DejaVuSans-116"/>
       <use x="763.183594" xlink:href="#DejaVuSans-97"/>
       <use x="824.462891" xlink:href="#DejaVuSans-103"/>
       <use x="887.939453" xlink:href="#DejaVuSans-101"/>
      </g>
     </g>
    </g>
    <g id="xtick_3">
     <g id="line2d_3">
      <g>
       <use style="stroke:#000000;stroke-width:0.8;" x="61.5" xlink:href="#m76674328df" y="90"/>
      </g>
     </g>
     <g id="text_3">
      <!-- operation_and_maintenance -->
      <defs>
       <path d="M 18.109375 8.203125 
L 18.109375 -20.796875 
L 9.078125 -20.796875 
L 9.078125 54.6875 
L 18.109375 54.6875 
L 18.109375 46.390625 
Q 20.953125 51.265625 25.265625 53.625 
Q 29.59375 56 35.59375 56 
Q 45.5625 56 51.78125 48.09375 
Q 58.015625 40.1875 58.015625 27.296875 
Q 58.015625 14.40625 51.78125 6.484375 
Q 45.5625 -1.421875 35.59375 -1.421875 
Q 29.59375 -1.421875 25.265625 0.953125 
Q 20.953125 3.328125 18.109375 8.203125 
z
M 48.6875 27.296875 
Q 48.6875 37.203125 44.609375 42.84375 
Q 40.53125 48.484375 33.40625 48.484375 
Q 26.265625 48.484375 22.1875 42.84375 
Q 18.109375 37.203125 18.109375 27.296875 
Q 18.109375 17.390625 22.1875 11.75 
Q 26.265625 6.109375 33.40625 6.109375 
Q 40.53125 6.109375 44.609375 11.75 
Q 48.6875 17.390625 48.6875 27.296875 
z
" id="DejaVuSans-112"/>
      </defs>
      <g transform="translate(64.120312 239.340625)rotate(-90)scale(0.1 -0.1)">
       <use xlink:href="#DejaVuSans-111"/>
       <use x="61.181641" xlink:href="#DejaVuSans-112"/>
       <use x="124.658203" xlink:href="#DejaVuSans-101"/>
       <use x="186.181641" xlink:href="#DejaVuSans-114"/>
       <use x="227.294922" xlink:href="#DejaVuSans-97"/>
       <use x="288.574219" xlink:href="#DejaVuSans-116"/>
       <use x="327.783203" xlink:href="#DejaVuSans-105"/>
       <use x="355.566406" xlink:href="#DejaVuSans-111"/>
       <use x="416.748047" xlink:href="#DejaVuSans-110"/>
       <use x="480.126953" xlink:href="#DejaVuSans-95"/>
       <use x="530.126953" xlink:href="#DejaVuSans-97"/>
       <use x="591.40625" xlink:href="#DejaVuSans-110"/>
       <use x="654.785156" xlink:href="#DejaVuSans-100"/>
       <use x="718.261719" xlink:href="#DejaVuSans-95"/>
       <use x="768.261719" xlink:href="#DejaVuSans-109"/>
       <use x="865.673828" xlink:href="#DejaVuSans-97"/>
       <use x="926.953125" xlink:href="#DejaVuSans-105"/>
       <use x="954.736328" xlink:href="#DejaVuSans-110"/>
       <use x="1018.115234" xlink:href="#DejaVuSans-116"/>
       <use x="1057.324219" xlink:href="#DejaVuSans-101"/>
       <use x="1118.847656" xlink:href="#DejaVuSans-110"/>
       <use x="1182.226562" xlink:href="#DejaVuSans-97"/>
       <use x="1243.505859" xlink:href="#DejaVuSans-110"/>
       <use x="1306.884766" xlink:href="#DejaVuSans-99"/>
       <use x="1361.865234" xlink:href="#DejaVuSans-101"/>
      </g>
     </g>
    </g>
    <g id="xtick_4">
     <g id="line2d_4">
      <g>
       <use style="stroke:#000000;stroke-width:0.8;" x="77.031429" xlink:href="#m76674328df" y="90"/>
      </g>
     </g>
     <g id="text_4">
      <!-- design-stage -->
      <defs>
       <path d="M 4.890625 31.390625 
L 31.203125 31.390625 
L 31.203125 23.390625 
L 4.890625 23.390625 
z
" id="DejaVuSans-45"/>
      </defs>
      <g transform="translate(79.790804 161.542188)rotate(-90)scale(0.1 -0.1)">
       <use xlink:href="#DejaVuSans-100"/>
       <use x="63.476562" xlink:href="#DejaVuSans-101"/>
       <use x="125" xlink:href="#DejaVuSans-115"/>
       <use x="177.099609" xlink:href="#DejaVuSans-105"/>
       <use x="204.882812" xlink:href="#DejaVuSans-103"/>
       <use x="268.359375" xlink:href="#DejaVuSans-110"/>
       <use x="331.738281" xlink:href="#DejaVuSans-45"/>
       <use x="367.822266" xlink:href="#DejaVuSans-115"/>
       <use x="419.921875" xlink:href="#DejaVuSans-116"/>
       <use x="459.130859" xlink:href="#DejaVuSans-97"/>
       <use x="520.410156" xlink:href="#DejaVuSans-103"/>
       <use x="583.886719" xlink:href="#DejaVuSans-101"/>
      </g>
     </g>
    </g>
    <g id="xtick_5">
     <g id="line2d_5">
      <g>
       <use style="stroke:#000000;stroke-width:0.8;" x="92.562857" xlink:href="#m76674328df" y="90"/>
      </g>
     </g>
     <g id="text_5">
      <!-- building_retrofit -->
      <defs>
       <path d="M 37.109375 75.984375 
L 37.109375 68.5 
L 28.515625 68.5 
Q 23.6875 68.5 21.796875 66.546875 
Q 19.921875 64.59375 19.921875 59.515625 
L 19.921875 54.6875 
L 34.71875 54.6875 
L 34.71875 47.703125 
L 19.921875 47.703125 
L 19.921875 0 
L 10.890625 0 
L 10.890625 47.703125 
L 2.296875 47.703125 
L 2.296875 54.6875 
L 10.890625 54.6875 
L 10.890625 58.5 
Q 10.890625 67.625 15.140625 71.796875 
Q 19.390625 75.984375 28.609375 75.984375 
z
" id="DejaVuSans-102"/>
      </defs>
      <g transform="translate(95.18317 176.2375)rotate(-90)scale(0.1 -0.1)">
       <use xlink:href="#DejaVuSans-98"/>
       <use x="63.476562" xlink:href="#DejaVuSans-117"/>
       <use x="126.855469" xlink:href="#DejaVuSans-105"/>
       <use x="154.638672" xlink:href="#DejaVuSans-108"/>
       <use x="182.421875" xlink:href="#DejaVuSans-100"/>
       <use x="245.898438" xlink:href="#DejaVuSans-105"/>
       <use x="273.681641" xlink:href="#DejaVuSans-110"/>
       <use x="337.060547" xlink:href="#DejaVuSans-103"/>
       <use x="400.537109" xlink:href="#DejaVuSans-95"/>
       <use x="450.537109" xlink:href="#DejaVuSans-114"/>
       <use x="489.400391" xlink:href="#DejaVuSans-101"/>
       <use x="550.923828" xlink:href="#DejaVuSans-116"/>
       <use x="590.132812" xlink:href="#DejaVuSans-114"/>
       <use x="628.996094" xlink:href="#DejaVuSans-111"/>
       <use x="690.177734" xlink:href="#DejaVuSans-102"/>
       <use x="725.382812" xlink:href="#DejaVuSans-105"/>
       <use x="753.166016" xlink:href="#DejaVuSans-116"/>
      </g>
     </g>
    </g>
   </g>
   <g id="matplotlib.axis_2">
    <g id="ytick_1">
     <g id="line2d_6">
      <defs>
       <path d="M 0 0 
L -3.5 0 
" id="m7cf6b99fdb" style="stroke:#000000;stroke-width:0.8;"/>
      </defs>
      <g>
       <use style="stroke:#000000;stroke-width:0.8;" x="22.671429" xlink:href="#m7cf6b99fdb" y="20.108571"/>
      </g>
     </g>
     <g id="text_6">
      <!-- building_commissioning -->
      <g transform="translate(-104.377009 23.90779)scale(0.1 -0.1)">
       <use xlink:href="#DejaVuSans-98"/>
       <use x="63.476562" xlink:href="#DejaVuSans-117"/>
       <use x="126.855469" xlink:href="#DejaVuSans-105"/>
       <use x="154.638672" xlink:href="#DejaVuSans-108"/>
       <use x="182.421875" xlink:href="#DejaVuSans-100"/>
       <use x="245.898438" xlink:href="#DejaVuSans-105"/>
       <use x="273.681641" xlink:href="#DejaVuSans-110"/>
       <use x="337.060547" xlink:href="#DejaVuSans-103"/>
       <use x="400.537109" xlink:href="#DejaVuSans-95"/>
       <use x="450.537109" xlink:href="#DejaVuSans-99"/>
       <use x="505.517578" xlink:href="#DejaVuSans-111"/>
       <use x="566.699219" xlink:href="#DejaVuSans-109"/>
       <use x="664.111328" xlink:href="#DejaVuSans-109"/>
       <use x="761.523438" xlink:href="#DejaVuSans-105"/>
       <use x="789.306641" xlink:href="#DejaVuSans-115"/>
       <use x="841.40625" xlink:href="#DejaVuSans-115"/>
       <use x="893.505859" xlink:href="#DejaVuSans-105"/>
       <use x="921.289062" xlink:href="#DejaVuSans-111"/>
       <use x="982.470703" xlink:href="#DejaVuSans-110"/>
       <use x="1045.849609" xlink:href="#DejaVuSans-105"/>
       <use x="1073.632812" xlink:href="#DejaVuSans-110"/>
       <use x="1137.011719" xlink:href="#DejaVuSans-103"/>
      </g>
     </g>
    </g>
    <g id="ytick_2">
     <g id="line2d_7">
      <g>
       <use style="stroke:#000000;stroke-width:0.8;" x="22.671429" xlink:href="#m7cf6b99fdb" y="35.64"/>
      </g>
     </g>
     <g id="text_7">
      <!-- construction_stage -->
      <g transform="translate(-79.273884 39.439219)scale(0.1 -0.1)">
       <use xlink:href="#DejaVuSans-99"/>
       <use x="54.980469" xlink:href="#DejaVuSans-111"/>
       <use x="116.162109" xlink:href="#DejaVuSans-110"/>
       <use x="179.541016" xlink:href="#DejaVuSans-115"/>
       <use x="231.640625" xlink:href="#DejaVuSans-116"/>
       <use x="270.849609" xlink:href="#DejaVuSans-114"/>
       <use x="311.962891" xlink:href="#DejaVuSans-117"/>
       <use x="375.341797" xlink:href="#DejaVuSans-99"/>
       <use x="430.322266" xlink:href="#DejaVuSans-116"/>
       <use x="469.53125" xlink:href="#DejaVuSans-105"/>
       <use x="497.314453" xlink:href="#DejaVuSans-111"/>
       <use x="558.496094" xlink:href="#DejaVuSans-110"/>
       <use x="621.875" xlink:href="#DejaVuSans-95"/>
       <use x="671.875" xlink:href="#DejaVuSans-115"/>
       <use x="723.974609" xlink:href="#DejaVuSans-116"/>
       <use x="763.183594" xlink:href="#DejaVuSans-97"/>
       <use x="824.462891" xlink:href="#DejaVuSans-103"/>
       <use x="887.939453" xlink:href="#DejaVuSans-101"/>
      </g>
     </g>
    </g>
    <g id="ytick_3">
     <g id="line2d_8">
      <g>
       <use style="stroke:#000000;stroke-width:0.8;" x="22.671429" xlink:href="#m7cf6b99fdb" y="51.171429"/>
      </g>
     </g>
     <g id="text_8">
      <!-- operation_and_maintenance -->
      <g transform="translate(-126.669196 54.970647)scale(0.1 -0.1)">
       <use xlink:href="#DejaVuSans-111"/>
       <use x="61.181641" xlink:href="#DejaVuSans-112"/>
       <use x="124.658203" xlink:href="#DejaVuSans-101"/>
       <use x="186.181641" xlink:href="#DejaVuSans-114"/>
       <use x="227.294922" xlink:href="#DejaVuSans-97"/>
       <use x="288.574219" xlink:href="#DejaVuSans-116"/>
       <use x="327.783203" xlink:href="#DejaVuSans-105"/>
       <use x="355.566406" xlink:href="#DejaVuSans-111"/>
       <use x="416.748047" xlink:href="#DejaVuSans-110"/>
       <use x="480.126953" xlink:href="#DejaVuSans-95"/>
       <use x="530.126953" xlink:href="#DejaVuSans-97"/>
       <use x="591.40625" xlink:href="#DejaVuSans-110"/>
       <use x="654.785156" xlink:href="#DejaVuSans-100"/>
       <use x="718.261719" xlink:href="#DejaVuSans-95"/>
       <use x="768.261719" xlink:href="#DejaVuSans-109"/>
       <use x="865.673828" xlink:href="#DejaVuSans-97"/>
       <use x="926.953125" xlink:href="#DejaVuSans-105"/>
       <use x="954.736328" xlink:href="#DejaVuSans-110"/>
       <use x="1018.115234" xlink:href="#DejaVuSans-116"/>
       <use x="1057.324219" xlink:href="#DejaVuSans-101"/>
       <use x="1118.847656" xlink:href="#DejaVuSans-110"/>
       <use x="1182.226562" xlink:href="#DejaVuSans-97"/>
       <use x="1243.505859" xlink:href="#DejaVuSans-110"/>
       <use x="1306.884766" xlink:href="#DejaVuSans-99"/>
       <use x="1361.865234" xlink:href="#DejaVuSans-101"/>
      </g>
     </g>
    </g>
    <g id="ytick_4">
     <g id="line2d_9">
      <g>
       <use style="stroke:#000000;stroke-width:0.8;" x="22.671429" xlink:href="#m7cf6b99fdb" y="66.702857"/>
      </g>
     </g>
     <g id="text_9">
      <!-- design-stage -->
      <g transform="translate(-48.870759 70.502076)scale(0.1 -0.1)">
       <use xlink:href="#DejaVuSans-100"/>
       <use x="63.476562" xlink:href="#DejaVuSans-101"/>
       <use x="125" xlink:href="#DejaVuSans-115"/>
       <use x="177.099609" xlink:href="#DejaVuSans-105"/>
       <use x="204.882812" xlink:href="#DejaVuSans-103"/>
       <use x="268.359375" xlink:href="#DejaVuSans-110"/>
       <use x="331.738281" xlink:href="#DejaVuSans-45"/>
       <use x="367.822266" xlink:href="#DejaVuSans-115"/>
       <use x="419.921875" xlink:href="#DejaVuSans-116"/>
       <use x="459.130859" xlink:href="#DejaVuSans-97"/>
       <use x="520.410156" xlink:href="#DejaVuSans-103"/>
       <use x="583.886719" xlink:href="#DejaVuSans-101"/>
      </g>
     </g>
    </g>
    <g id="ytick_5">
     <g id="line2d_10">
      <g>
       <use style="stroke:#000000;stroke-width:0.8;" x="22.671429" xlink:href="#m7cf6b99fdb" y="82.234286"/>
      </g>
     </g>
     <g id="text_10">
      <!-- building_retrofit -->
      <g transform="translate(-63.566071 86.033504)scale(0.1 -0.1)">
       <use xlink:href="#DejaVuSans-98"/>
       <use x="63.476562" xlink:href="#DejaVuSans-117"/>
       <use x="126.855469" xlink:href="#DejaVuSans-105"/>
       <use x="154.638672" xlink:href="#DejaVuSans-108"/>
       <use x="182.421875" xlink:href="#DejaVuSans-100"/>
       <use x="245.898438" xlink:href="#DejaVuSans-105"/>
       <use x="273.681641" xlink:href="#DejaVuSans-110"/>
       <use x="337.060547" xlink:href="#DejaVuSans-103"/>
       <use x="400.537109" xlink:href="#DejaVuSans-95"/>
       <use x="450.537109" xlink:href="#DejaVuSans-114"/>
       <use x="489.400391" xlink:href="#DejaVuSans-101"/>
       <use x="550.923828" xlink:href="#DejaVuSans-116"/>
       <use x="590.132812" xlink:href="#DejaVuSans-114"/>
       <use x="628.996094" xlink:href="#DejaVuSans-111"/>
       <use x="690.177734" xlink:href="#DejaVuSans-102"/>
       <use x="725.382812" xlink:href="#DejaVuSans-105"/>
       <use x="753.166016" xlink:href="#DejaVuSans-116"/>
      </g>
     </g>
    </g>
   </g>
   <g id="text_11">
    <!-- phase &lt; - - &gt;phase -->
    <defs>
     <path d="M 54.890625 33.015625 
L 54.890625 0 
L 45.90625 0 
L 45.90625 32.71875 
Q 45.90625 40.484375 42.875 44.328125 
Q 39.84375 48.1875 33.796875 48.1875 
Q 26.515625 48.1875 22.3125 43.546875 
Q 18.109375 38.921875 18.109375 30.90625 
L 18.109375 0 
L 9.078125 0 
L 9.078125 75.984375 
L 18.109375 75.984375 
L 18.109375 46.1875 
Q 21.34375 51.125 25.703125 53.5625 
Q 30.078125 56 35.796875 56 
Q 45.21875 56 50.046875 50.171875 
Q 54.890625 44.34375 54.890625 33.015625 
z
" id="DejaVuSans-104"/>
     <path id="DejaVuSans-32"/>
     <path d="M 73.1875 49.21875 
L 22.796875 31.296875 
L 73.1875 13.484375 
L 73.1875 4.59375 
L 10.59375 27.296875 
L 10.59375 35.40625 
L 73.1875 58.109375 
z
" id="DejaVuSans-60"/>
     <path d="M 10.59375 49.21875 
L 10.59375 58.109375 
L 73.1875 35.40625 
L 73.1875 27.296875 
L 10.59375 4.59375 
L 10.59375 13.484375 
L 60.890625 31.296875 
z
" id="DejaVuSans-62"/>
    </defs>
    <g transform="translate(5.1825 6.342857)scale(0.12 -0.12)">
     <use xlink:href="#DejaVuSans-112"/>
     <use x="63.476562" xlink:href="#DejaVuSans-104"/>
     <use x="126.855469" xlink:href="#DejaVuSans-97"/>
     <use x="188.134766" xlink:href="#DejaVuSans-115"/>
     <use x="240.234375" xlink:href="#DejaVuSans-101"/>
     <use x="301.757812" xlink:href="#DejaVuSans-32"/>
     <use x="333.544922" xlink:href="#DejaVuSans-60"/>
     <use x="417.333984" xlink:href="#DejaVuSans-32"/>
     <use x="449.121094" xlink:href="#DejaVuSans-45"/>
     <use x="485.205078" xlink:href="#DejaVuSans-45"/>
     <use x="521.289062" xlink:href="#DejaVuSans-32"/>
     <use x="553.076172" xlink:href="#DejaVuSans-62"/>
     <use x="636.865234" xlink:href="#DejaVuSans-112"/>
     <use x="700.341797" xlink:href="#DejaVuSans-104"/>
     <use x="763.720703" xlink:href="#DejaVuSans-97"/>
     <use x="825" xlink:href="#DejaVuSans-115"/>
     <use x="877.099609" xlink:href="#DejaVuSans-101"/>
    </g>
   </g>
  </g>
 </g>
 <defs>
  <clipPath id="p0ef9cead62">
   <rect height="77.657143" width="77.657143" x="22.671429" y="12.342857"/>
  </clipPath>
 </defs>
</svg>
